<svg xmlns="http://www.w3.org/2000/svg" width="212.317" height="212.124" viewBox="0 0 212.317 212.124">
  <g id="arrow" transform="matrix(-0.809, 0.588, -0.588, -0.809, 206.884, 88.045)">
    <g id="Group_1137" data-name="Group 1137" transform="translate(13.423 -27.718)">
      <path id="Path_5387" data-name="Path 5387" d="M13.852,113.934a1.853,1.853,0,0,1-1.64-2.708C13,109.708,31.854,74.034,52.939,71.791c7.13-.759,13.626,2.338,19.321,9.2,2.116,2.549,5.177,5.474,7.7,4.883C84.949,84.72,88.176,71.53,90.532,61.9,93.007,51.785,94.641,45.1,98.577,45.03c2.886-.039,5.69,3.195,10.34,19.516.79,2.777,1.473,3.175,1.481,3.178,1.52-.357,5.161-7.706,7.569-12.567,4.711-9.511,9.165-18.5,14.655-18.5.1,0,.193,0,.289.009,4.065.233,6.3,5.183,7.637,8.885,2.107,5.862,3.439,7.289,3.865,7.621C145.721,52,147.3,45.4,148.159,41.789c.466-1.951,19.257-66.463,19.733-68.158a1.857,1.857,0,0,1,2.282-1.281,1.851,1.851,0,0,1,1.281,2.282c-.465,1.651-19.243,66.115-19.7,68.018-2.084,8.731-3.545,14.092-7.141,14.292-2.786.146-4.913-2.788-7.556-10.14-2.108-5.866-3.874-6.414-4.365-6.442-.03,0-.057,0-.087,0-3.182,0-8.076,9.885-11.327,16.445-4.729,9.544-7.595,14.942-11.314,14.586-2.719-.248-3.933-3.445-4.613-5.827C101.466,51.9,99.328,49.3,98.667,48.81c-1.425,1.251-3.215,8.57-4.535,13.968-2.871,11.737-6.127,25.039-13.341,26.7-3.558.818-7.276-1.187-11.377-6.127-4.922-5.931-10.177-8.509-16.08-7.88C34.214,77.5,15.679,112.586,15.5,112.94a1.854,1.854,0,0,1-1.644.994Z" transform="translate(-12.003 27.718)" fill="#fff"/>
    </g>
    <g id="Group_1138" data-name="Group 1138" transform="translate(10.334 100.278)">
      <path id="Path_5388" data-name="Path 5388" d="M13.9,79.732a1.853,1.853,0,0,1-1.833-1.6L10.352,65.779a1.851,1.851,0,1,1,3.667-.509l1.351,9.74,9.337-4.942A1.852,1.852,0,0,1,26.44,73.34L14.767,79.519a1.884,1.884,0,0,1-.866.213Z" transform="translate(-10.334 -63.672)" fill="#fff"/>
    </g>
  </g>
</svg>
