<svg xmlns="http://www.w3.org/2000/svg" width="49.357" height="50.64" viewBox="0 0 49.357 50.64">
  <g id="location" transform="translate(-6.284)">
    <path id="Path_6543" data-name="Path 6543" d="M363.861,278.648l-3.927-2.212-2.354,10.088,10.012,10.088,2.326,1.31a.766.766,0,0,0,1.092-.939l-6.81-17.939A.766.766,0,0,0,363.861,278.648Z" transform="translate(-315.423 -248.207)" fill="#ffbe3b"/>
    <path id="Path_6544" data-name="Path 6544" d="M297.658,250.56l-4.212,9.009,8.042,9.009,8.52,4.8L302.349,253.2Z" transform="translate(-257.837 -224.973)" fill="#ffd45e"/>
    <path id="Path_6545" data-name="Path 6545" d="M216.4,250.56l-8.859,4.991-4.6,10.031,4.6,10.031a.765.765,0,0,0,.376-.1l12.312-6.937Z" transform="translate(-176.579 -224.973)" fill="#ffe88c"/>
    <path id="Path_6546" data-name="Path 6546" d="M90.508,250.56l-8.04,9.009,4.21,9.009,12.312,6.937a.765.765,0,0,0,.376.1V255.551Z" transform="translate(-68.404 -224.973)" fill="#ffd45e"/>
    <path id="Path_6547" data-name="Path 6547" d="M22.1,250.56l-3.829,18.018-10.846,6.11a.766.766,0,0,1-1.092-.939l6.81-17.939a.766.766,0,0,1,.34-.4Z" transform="translate(0 -224.973)" fill="#ffe88c"/>
    <path id="Path_6548" data-name="Path 6548" d="M247.946,0V38.295a1.529,1.529,0,0,0,1.295-.716s10.375-16.449,10.375-16.449A13.789,13.789,0,0,0,247.946,0Z" transform="translate(-216.984)" fill="#fc5e32"/>
    <path id="Path_6549" data-name="Path 6549" d="M127.739,37.579s8.069-16.449,8.069-16.449a16.724,16.724,0,0,0,1.646-7.343c0-7.614-4.8-13.786-10.723-13.786a13.787,13.787,0,0,0-11.669,21.129s10.372,16.449,10.372,16.449a1.535,1.535,0,0,0,1.3.716A1.161,1.161,0,0,0,127.739,37.579Z" transform="translate(-95.77)" fill="#ff7d4a"/>
    <circle id="Ellipse_67" data-name="Ellipse 67" cx="7.659" cy="7.659" r="7.659" transform="translate(23.303 6.127)" fill="#fff"/>
    <path id="Path_6550" data-name="Path 6550" d="M247.946,90v9.191a4.6,4.6,0,0,0,0-9.191Z" transform="translate(-216.984 -80.809)" fill="#ff7d4a"/>
    <path id="Path_6551" data-name="Path 6551" d="M209.073,94.6c0-2.538-.686-4.6-1.532-4.6a4.6,4.6,0,1,0,0,9.191C208.387,99.191,209.073,97.133,209.073,94.6Z" transform="translate(-176.579 -80.809)" fill="#ff9a6b"/>
  </g>
</svg>
