<svg id="mail" xmlns="http://www.w3.org/2000/svg" width="49.357" height="49.357" viewBox="0 0 49.357 49.357">
  <path id="Path_6552" data-name="Path 6552" d="M22.9,116.5,15,122.37l8.281,10.469Z" transform="translate(-13.554 -105.268)" fill="#68544f"/>
  <path id="Path_6553" data-name="Path 6553" d="M411.475,116.5l-.376,16.34,8.281-10.469Z" transform="translate(-371.469 -105.268)" fill="#53433f"/>
  <path id="Path_6554" data-name="Path 6554" d="M122.812,1.446V36.97a1.432,1.432,0,0,1-1.446,1.446H92.446A1.432,1.432,0,0,1,91,36.97V1.446A1.432,1.432,0,0,1,92.446,0h28.92A1.432,1.432,0,0,1,122.812,1.446Z" transform="translate(-82.227)" fill="#f7f0eb"/>
  <path id="Path_6555" data-name="Path 6555" d="M271.906,1.446V36.97a1.432,1.432,0,0,1-1.446,1.446H256V0h14.46A1.432,1.432,0,0,1,271.906,1.446Z" transform="translate(-231.321)" fill="#efe2dd"/>
  <g id="Group_5346" data-name="Group 5346" transform="translate(14.557 8.773)">
    <path id="Path_6556" data-name="Path 6556" d="M171.244,92.446a1.432,1.432,0,0,1-1.446,1.446H152.446a1.446,1.446,0,1,1,0-2.892H169.8A1.432,1.432,0,0,1,171.244,92.446Z" transform="translate(-151 -91)" fill="#e1d3ce"/>
    <path id="Path_6557" data-name="Path 6557" d="M171.244,152.446a1.432,1.432,0,0,1-1.446,1.446H152.446a1.446,1.446,0,0,1,0-2.892H169.8A1.432,1.432,0,0,1,171.244,152.446Z" transform="translate(-151 -145.216)" fill="#e1d3ce"/>
    <path id="Path_6558" data-name="Path 6558" d="M162.568,212.446a1.432,1.432,0,0,1-1.446,1.446h-8.676a1.446,1.446,0,0,1,0-2.892h8.676A1.432,1.432,0,0,1,162.568,212.446Z" transform="translate(-151 -199.432)" fill="#e1d3ce"/>
  </g>
  <g id="Group_5347" data-name="Group 5347" transform="translate(24.679 8.773)">
    <path id="Path_6559" data-name="Path 6559" d="M256,213.892V211a1.446,1.446,0,0,1,0,2.892Z" transform="translate(-256 -199.432)" fill="#cdbfba"/>
    <path id="Path_6560" data-name="Path 6560" d="M264.676,153.892H256V151h8.676a1.446,1.446,0,0,1,0,2.892Z" transform="translate(-256 -145.216)" fill="#cdbfba"/>
    <path id="Path_6561" data-name="Path 6561" d="M264.676,93.892H256V91h8.676a1.446,1.446,0,1,1,0,2.892Z" transform="translate(-256 -91)" fill="#cdbfba"/>
  </g>
  <path id="Path_6562" data-name="Path 6562" d="M48.837,178.094c-.029,0-.925-.694-.925-.694l-2.4,1.793L25.546,194.087a1.342,1.342,0,0,1-1.735,0L3.847,179.193l-2.4-1.793s-.9.694-.925.694a1.43,1.43,0,0,0-.521,1.1v26.125a4.332,4.332,0,0,0,4.338,4.338H45.019a4.332,4.332,0,0,0,4.338-4.338V179.193A1.43,1.43,0,0,0,48.837,178.094Z" transform="translate(0 -160.298)" fill="#fdbf00"/>
  <path id="Path_6563" data-name="Path 6563" d="M280.679,179.193v26.125a4.332,4.332,0,0,1-4.338,4.338H256V194.405a1.46,1.46,0,0,0,.868-.318l19.965-14.894,2.4-1.793s.9.694.925.694A1.43,1.43,0,0,1,280.679,179.193Z" transform="translate(-231.321 -160.298)" fill="#ff9f00"/>
</svg>
