<svg xmlns="http://www.w3.org/2000/svg" width="49.357" height="48.911" viewBox="0 0 49.357 48.911">
  <g id="support" transform="translate(-4.01 -4.237)">
    <path id="Path_6534" data-name="Path 6534" d="M46.194,35.712,43.065,33.27,39.9,35.747l3.165,2.045Z" transform="translate(-4.252 -3.439)" fill="none"/>
    <path id="Path_6535" data-name="Path 6535" d="M58.46,27.4V43.118a.882.882,0,0,1-.247.617L47,34.981l1.067-.705Z" transform="translate(-5.093 -2.744)" fill="#f29a25"/>
    <path id="Path_6536" data-name="Path 6536" d="M38.372,35.084,27.247,43.776A.882.882,0,0,1,27,43.159V27.75l10.217,6.594Z" transform="translate(-2.723 -2.785)" fill="#f29a25"/>
    <path id="Path_6537" data-name="Path 6537" d="M55.877,44.754a.882.882,0,0,1-.635.264H27.915a.882.882,0,0,1-.635-.264l11.125-8.692,3.174,2.054L44.664,36Z" transform="translate(-2.757 -3.763)" fill="#ffa726"/>
    <path id="Path_6538" data-name="Path 6538" d="M28.878,45.537l-3.244,3c-2.1.723-6.171-1.217-9.759-4.8s-5.527-7.661-4.822-9.759l3-3.244a.882.882,0,0,0,0-1.225L9.7,25.164a.882.882,0,0,0-1.261,0L5.412,28.3c-3.262,4.364-.679,12.941,6.171,19.755s15.339,9.4,19.746,6.136l3.129-3.032a.882.882,0,0,0,0-1.261l-4.337-4.337a.882.882,0,0,0-1.243-.026Z" transform="translate(0 -2.448)" fill="#3cc2ec"/>
    <path id="Path_6539" data-name="Path 6539" d="M56.091,27.024V25.112a.882.882,0,0,0-.882-.882H27.882a.882.882,0,0,0-.882.882v2.221l14.545,9.388Z" transform="translate(-2.723 -2.368)" fill="#ffb450"/>
    <path id="Path_6540" data-name="Path 6540" d="M39.561,23.8a11.46,11.46,0,1,0-18.3-2.874L20.335,26.3a.45.45,0,0,0,.511.511l5.377-.926A11.46,11.46,0,0,0,39.561,23.8Z" transform="translate(-1.894)" fill="#e4e9eb"/>
    <g id="Group_5345" data-name="Group 5345" transform="translate(22.514 12.165)">
      <path id="Path_6541" data-name="Path 6541" d="M36.7,14.993H27.882a.882.882,0,1,1,0-1.763H36.7a.882.882,0,1,1,0,1.763Z" transform="translate(-25.237 -13.23)" fill="#5a6c75"/>
      <path id="Path_6542" data-name="Path 6542" d="M38.223,19.993H25.882a.882.882,0,0,1,0-1.763H38.223a.882.882,0,0,1,0,1.763Z" transform="translate(-25 -13.822)" fill="#5a6c75"/>
    </g>
  </g>
</svg>
