<svg id="_01" data-name="01" xmlns="http://www.w3.org/2000/svg" xmlns:xlink="http://www.w3.org/1999/xlink" width="900.291" height="563.82" viewBox="0 0 900.291 563.82">
  <defs>
    <linearGradient id="linear-gradient" y1="0.5" x2="1" y2="0.5" gradientUnits="objectBoundingBox">
      <stop offset="0" stop-color="#170e47"/>
      <stop offset="1" stop-color="#25d366"/>
    </linearGradient>
    <linearGradient id="linear-gradient-2" y1="0.5" x2="1" y2="0.5" gradientUnits="objectBoundingBox">
      <stop offset="0" stop-color="#e93a89"/>
      <stop offset="0.092" stop-color="#bd307b"/>
      <stop offset="0.2" stop-color="#91276d"/>
      <stop offset="0.314" stop-color="#6b1f61"/>
      <stop offset="0.431" stop-color="#4c1957"/>
      <stop offset="0.553" stop-color="#351450"/>
      <stop offset="0.683" stop-color="#24104b"/>
      <stop offset="0.824" stop-color="#1a0e48"/>
      <stop offset="1" stop-color="#170e47"/>
    </linearGradient>
    <linearGradient id="linear-gradient-3" x1="-0.7" y1="-0.113" x2="0.3" y2="-0.113" xlink:href="#linear-gradient-2"/>
  </defs>
  <path id="Path_6408" data-name="Path 6408" d="M831.364,84.741C721.008,45.853,562.6,85.382,293.5,20.545S63.193,157.707,94.672,201.22s27.258,60.929-23.11,190.024S174.11,530.764,174.11,530.764L670.9,553.459c293.947-7.515,28.171-199.068,174.606-255.5S906.044,111.058,831.364,84.741Z" transform="translate(-25.007 -7.827)" opacity="0.5" fill="url(#linear-gradient)" style="mix-blend-mode: color-dodge;isolation: isolate"/>
  <path id="Path_6409" data-name="Path 6409" d="M-5.352,303.44C-2.66,111.476,213.3,70.542,457.922,138.961S838.045,91.437,857.3,295.4,661.222,630.229,453.279,526.134-10.092,641.28-5.352,303.44Z" transform="translate(5.417 -53.465)" opacity="0.5" fill="url(#linear-gradient-2)" style="mix-blend-mode: color-dodge;isolation: isolate"/>
  <path id="Path_6410" data-name="Path 6410" d="M130.958,285.779c33.664,177.379,255.022,130.872,293.42,246.89s439.076,33.547,468.416-131.864c18.5-104.272,30.69-339.3-243.174-357.187S97.294,108.4,130.958,285.779Z" transform="translate(-55.432 -23.04)" opacity="0.5" fill="url(#linear-gradient-3)" style="mix-blend-mode: color-dodge;isolation: isolate"/>
  <g id="Group_5333" data-name="Group 5333" transform="translate(17.808 16.18)">
    <g id="Group_5332" data-name="Group 5332" transform="translate(0)">
      <g id="Group_5129" data-name="Group 5129" transform="translate(59.527 238.881)">
        <path id="Path_6411" data-name="Path 6411" d="M174.491,476.223H136.6v33.246l5.784-5.785h32.106Z" transform="translate(-136.601 -476.223)" fill="#90c0fc"/>
      </g>
      <g id="Group_5133" data-name="Group 5133" transform="translate(17.132 247.658)">
        <g id="Group_5132" data-name="Group 5132" transform="translate(0)">
          <g id="Group_5131" data-name="Group 5131">
            <g id="Group_5130" data-name="Group 5130">
              <path id="Path_6412" data-name="Path 6412" d="M82.582,494.376s9.269,4.534,6.977,16.868-3.306,14-.742,18.814,5.588,25.378,3.28,29.275-28.556-17.125-32.2-34.761,2.307-25.479,4.41-28.4S74.4,490.223,82.582,494.376Z" transform="translate(-58.748 -492.341)" fill="#20313f"/>
            </g>
          </g>
        </g>
      </g>
      <g id="Group_5135" data-name="Group 5135" transform="translate(43.535 294.217)">
        <g id="Group_5134" data-name="Group 5134">
          <path id="Path_6413" data-name="Path 6413" d="M107.234,577.843a12.9,12.9,0,0,1,7.365,4.86c1.844,2.711,1.993,8.74,2.259,9.875s3.785,13.978,3.785,13.978l-9.827,6.586Z" transform="translate(-107.234 -577.843)" fill="#3a5271"/>
        </g>
      </g>
      <g id="Group_5137" data-name="Group 5137" transform="translate(67.394 500.164)">
        <g id="Group_5136" data-name="Group 5136">
          <path id="Path_6414" data-name="Path 6414" d="M163.5,969.734s6.413,8.635,5.533,10-7.623,1.565-11.729,0-4.2-11.681-6.06-16.03c-.777-1.819.887-7.192,3.225-7.582a9.872,9.872,0,0,1,4.885.755S156.925,963,163.5,969.734Z" transform="translate(-151.048 -956.045)" fill="#2c3d54"/>
        </g>
      </g>
      <g id="Group_5140" data-name="Group 5140" transform="translate(69.327 500.04)">
        <g id="Group_5139" data-name="Group 5139">
          <g id="Group_5138" data-name="Group 5138">
            <path id="Path_6415" data-name="Path 6415" d="M161.012,956.708a40.753,40.753,0,0,1,1.842,7.186c.409,2.913,4.569,9.094,4.374,9.875s-5.473,1.49-7.625-.526-3.532-7.877-4.007-11.383a28.251,28.251,0,0,0-1-4.879S158.958,954.557,161.012,956.708Z" transform="translate(-154.598 -955.818)" fill="#dba585"/>
          </g>
        </g>
      </g>
      <g id="Group_5142" data-name="Group 5142" transform="translate(11.341 500.168)">
        <g id="Group_5141" data-name="Group 5141">
          <path id="Path_6416" data-name="Path 6416" d="M60.794,969.882s6.182,8.492,5.3,9.859-7.623,1.565-11.728,0-4.2-11.681-6.061-16.03c-.777-1.819.886-7.192,3.225-7.582a10.517,10.517,0,0,1,5.083.839S54.221,963.152,60.794,969.882Z" transform="translate(-48.113 -956.053)" fill="#2c3d54"/>
        </g>
      </g>
      <g id="Group_5145" data-name="Group 5145" transform="translate(14.235 499.848)">
        <g id="Group_5144" data-name="Group 5144">
          <g id="Group_5143" data-name="Group 5143">
            <path id="Path_6417" data-name="Path 6417" d="M59.036,956.7a57.745,57.745,0,0,0,1.271,6.841c.781,2.835,4.984,9.286,4.789,10.068s-5.474,1.49-7.624-.526-3.811-7.851-4.009-11.383a18.809,18.809,0,0,1,.49-5.838S56.983,954.548,59.036,956.7Z" transform="translate(-53.428 -955.465)" fill="#dba585"/>
          </g>
        </g>
      </g>
      <g id="Group_5148" data-name="Group 5148" transform="translate(4.878 341.86)">
        <g id="Group_5147" data-name="Group 5147">
          <g id="Group_5146" data-name="Group 5146">
            <path id="Path_6418" data-name="Path 6418" d="M82.1,684s5.5,25.6,6.767,32.047,4.8,37.663,5.182,42.972,5.743,25.31,5.49,27.205,7.952,39.979,7.952,39.979a4.934,4.934,0,0,1-5.756.2c-1.519-1.055-18-35.655-18-45.134,0-13.1-9.689-30.206-10.939-33.138C61.18,720.9,63.468,712.577,61.95,710.806s-1.647,1.094-2.533,5.012S56.638,753.61,55.5,757.906s-.254,18.832-.886,26.162-3.406,40.489-3.406,40.489-2.149,3.367-5.164.089c-.649-.705-5.205-36.937-5.332-45.66s-.26-20.747-.5-24.519c-2.342-36.138-8.1-41.3.968-66.877C58.148,639.7,82.1,684,82.1,684Z" transform="translate(-36.244 -665.335)" fill="#dba585"/>
          </g>
        </g>
      </g>
      <g id="Group_5150" data-name="Group 5150" transform="translate(3.162 353.366)">
        <g id="Group_5149" data-name="Group 5149">
          <path id="Path_6419" data-name="Path 6419" d="M43.708,686.466s-15.678,21.943-8.927,68.62c0,0,37.187,5.058,57.109-5.851,0,0-8.238-48.125-11.224-55.612S43.708,686.466,43.708,686.466Z" transform="translate(-33.093 -686.464)" fill="#2c3d54"/>
        </g>
      </g>
      <g id="Group_5152" data-name="Group 5152" transform="translate(67.415 507.068)">
        <g id="Group_5151" data-name="Group 5151">
          <path id="Path_6420" data-name="Path 6420" d="M151.086,968.724v9.039h1.174v-6.985Z" transform="translate(-151.086 -968.724)" fill="#2c3d54"/>
        </g>
      </g>
      <g id="Group_5154" data-name="Group 5154" transform="translate(11.363 507.068)">
        <g id="Group_5153" data-name="Group 5153">
          <path id="Path_6421" data-name="Path 6421" d="M48.153,968.724v9.039h1.173v-6.985Z" transform="translate(-48.153 -968.724)" fill="#2c3d54"/>
        </g>
      </g>
      <g id="Group_5156" data-name="Group 5156" transform="translate(6.128 290.715)">
        <g id="Group_5155" data-name="Group 5155">
          <path id="Path_6422" data-name="Path 6422" d="M67.23,571.713s5.776,2.728,7.782,3.128,9.787,10.511,11.152,14.2,0,9.223-2.809,15.722-.16,8.664-1.444,15.163-2.406,20.255-2.165,23.866-32.448,4.291-39.908-2.288c0,0,7.5-11.231,8.461-12.834s.161-10.349-.722-12.595-6.756-21.349-6.756-21.349-4.805-14.669-.464-18.04c3.771-2.931,14.046-3.972,15.891-4.615S63.46,571.152,67.23,571.713Z" transform="translate(-38.54 -571.411)" fill="#e6d8d1"/>
        </g>
      </g>
      <g id="Group_5158" data-name="Group 5158" transform="translate(36.496 288.962)">
        <g id="Group_5157" data-name="Group 5157">
          <path id="Path_6423" data-name="Path 6423" d="M94.475,583.122l3.51-4.108-3.048-10.822A71.425,71.425,0,0,0,94.475,583.122Z" transform="translate(-94.307 -568.192)" fill="#cfc3bc"/>
        </g>
      </g>
      <g id="Group_5160" data-name="Group 5160" transform="translate(23.835 276.446)">
        <g id="Group_5159" data-name="Group 5159">
          <path id="Path_6424" data-name="Path 6424" d="M84.8,553.115s-.158,1.447-.345,3.449c-.081.886-.17,1.885-.253,2.911a66.115,66.115,0,0,0-.315,7.684s-6,6.016-12.829-7.02a17.9,17.9,0,0,0,.711-12.694C69.6,540.126,84.8,553.115,84.8,553.115Z" transform="translate(-71.057 -545.209)" fill="#dba585"/>
        </g>
      </g>
      <g id="Group_5162" data-name="Group 5162" transform="translate(29.757 298.396)">
        <g id="Group_5161" data-name="Group 5161">
          <path id="Path_6425" data-name="Path 6425" d="M88.839,585.518v5.5l-6.908-5.161Z" transform="translate(-81.931 -585.518)" fill="#dba585"/>
        </g>
      </g>
      <g id="Group_5164" data-name="Group 5164" transform="translate(21.01 290.715)">
        <g id="Group_5163" data-name="Group 5163">
          <path id="Path_6426" data-name="Path 6426" d="M81.523,584.588l-2.868-3.549-9.661-9.628-3.125,3.01Z" transform="translate(-65.869 -571.411)" fill="#cfc3bc"/>
        </g>
      </g>
      <g id="Group_5166" data-name="Group 5166" transform="translate(3.156 291.637)">
        <g id="Group_5165" data-name="Group 5165">
          <path id="Path_6427" data-name="Path 6427" d="M52.72,573.1s8.107,12.3,8.493,17.717-3.012,45.923-5.735,58.943-22.4-1.469-22.4-1.469,13.22-21.4,8.145-38.536-6.919-23.985-6.919-23.985,1.747-9.541,7.934-10.884C47.667,573.715,52.72,573.1,52.72,573.1Z" transform="translate(-33.081 -573.104)" fill="#3a5271"/>
        </g>
      </g>
      <g id="Group_5168" data-name="Group 5168" transform="translate(39.104 292.917)">
        <g id="Group_5167" data-name="Group 5167">
          <path id="Path_6428" data-name="Path 6428" d="M114.277,592.527s1.463,5.174-4.233,16.611c0,0,.089,14.637.251,19.209s3.394,21.016,3.394,21.016l-7.784,4.146a1.589,1.589,0,0,1-2.381-1.563c1.595-13.16,6.785-63.074-4.427-76.49l4.5,1.328S111.588,583.321,114.277,592.527Z" transform="translate(-99.096 -575.455)" fill="#3a5271"/>
        </g>
      </g>
      <g id="Group_5170" data-name="Group 5170" transform="translate(37.126 288.962)">
        <g id="Group_5169" data-name="Group 5169">
          <path id="Path_6429" data-name="Path 6429" d="M98.512,579.014l4.423,1.222-7.47-12.044Z" transform="translate(-95.464 -568.192)" fill="#f3e4dc"/>
        </g>
      </g>
      <g id="Group_5172" data-name="Group 5172" transform="translate(21.462 290.715)">
        <g id="Group_5171" data-name="Group 5171">
          <path id="Path_6430" data-name="Path 6430" d="M79.033,581.04l-4.039,5.294L66.7,572.509l2.673-1.1Z" transform="translate(-66.699 -571.411)" fill="#f3e4dc"/>
        </g>
      </g>
      <g id="Group_5173" data-name="Group 5173" transform="translate(39.651 320.842)">
        <rect id="Rectangle_2116" data-name="Rectangle 2116" width="1.462" height="17.297" transform="matrix(0.785, -0.62, 0.62, 0.785, 0, 0.906)" fill="#cb4949"/>
      </g>
      <g id="Group_5174" data-name="Group 5174" transform="translate(37.286 330.405)">
        <path id="Path_6431" data-name="Path 6431" d="M97.452,647.676a3.133,3.133,0,0,0,1.7-.488c1.165-.878,1.584-3.039,3.638-2.881s3.007,6.6,2.492,7.818-3.366,1.829-7.582.989S97.452,647.676,97.452,647.676Z" transform="translate(-95.759 -644.299)" fill="#dba585"/>
      </g>
      <g id="Group_5175" data-name="Group 5175" transform="translate(42.827 328.082)">
        <path id="Path_6432" data-name="Path 6432" d="M106.718,642.407a64.529,64.529,0,0,1,6.361-1.742c2.991-.647,6.564-.86,6.912-.34.387.577-2.913,1.077-5.844,1.908-2.7.766-2.055,1.048-2.055,1.048s-.178-.091,2.9-.378c3.311-.311,6.721-.3,7.058.359.162.321.049.538-1.144.842.717-.034.817.152.845.44.143,1.492-4.688,2.68-6.606,3.151,1.476-.353,2.59-.462,2.059.538-.608,1.144-7.5,2.526-9.932,3.248C104.625,652.269,106.718,642.407,106.718,642.407Z" transform="translate(-105.934 -640.033)" fill="#dba585"/>
      </g>
      <g id="Group_5176" data-name="Group 5176" transform="translate(0 293.528)">
        <path id="Path_6433" data-name="Path 6433" d="M40.746,576.693c-2.032-.657-7.995,1.457-9,7.572s-1.412,12.9-2.352,16.193-3.337,17.879-1.322,19.088,5.833,2.314,11.187,2.314c5.529,0,26.968.961,26.968.961l1.343-7.615s-8.142-.421-12.361-1.059c-3.756-.57-8.96-2.168-15.088-2.841,0,0,1.3-9.035,2.24-11.588S49.884,579.649,40.746,576.693Z" transform="translate(-27.286 -576.578)" fill="#3a5271"/>
      </g>
      <g id="Group_5177" data-name="Group 5177" transform="translate(51.524 332.742)">
        <path id="Path_6434" data-name="Path 6434" d="M123.052,648.59l1.005,2.451-2.152-1.543Z" transform="translate(-121.906 -648.59)" fill="#dba585"/>
      </g>
      <g id="Group_5179" data-name="Group 5179" transform="translate(40.86 306.963)">
        <g id="Group_5178" data-name="Group 5178">
          <path id="Path_6435" data-name="Path 6435" d="M102.322,639.8l21.6-4.282,16.016-34.271-23.049,2.421Z" transform="translate(-102.322 -601.249)" fill="#cd7250"/>
        </g>
      </g>
      <g id="Group_5182" data-name="Group 5182" transform="translate(63.15 324.712)">
        <g id="Group_5181" data-name="Group 5181">
          <g id="Group_5180" data-name="Group 5180">
            <path id="Path_6436" data-name="Path 6436" d="M145.253,644.549a17.389,17.389,0,0,0,2.236-2.638c1.056-1.538,4.507-7.413,4.191-7.782s-5.439-.5-6.368.341.914,1.166.914,1.166-2.8.288-2.6,1.078,1.887.572,1.887.572-2.255.433-1.914,1.127,1.426.685,1.426.685-2,.253-1.75,1.011,3.407,1.474,2.986,2.1A14.644,14.644,0,0,0,145.253,644.549Z" transform="translate(-143.254 -633.844)" fill="#dba585"/>
          </g>
        </g>
      </g>
      <g id="Group_5186" data-name="Group 5186" transform="translate(21.873 250.667)">
        <g id="Group_5185" data-name="Group 5185">
          <g id="Group_5184" data-name="Group 5184">
            <g id="Group_5183" data-name="Group 5183">
              <path id="Path_6437" data-name="Path 6437" d="M85.2,498.261s13.457,4.229,6.152,27.454-25.685-2.693-23.762-16.843S85.2,498.261,85.2,498.261Z" transform="translate(-67.453 -497.868)" fill="#dba686"/>
            </g>
          </g>
        </g>
      </g>
      <g id="Group_5190" data-name="Group 5190" transform="translate(20.812 248.802)">
        <g id="Group_5189" data-name="Group 5189">
          <g id="Group_5188" data-name="Group 5188">
            <g id="Group_5187" data-name="Group 5187">
              <path id="Path_6438" data-name="Path 6438" d="M91.843,510.252a30.346,30.346,0,0,1-17.878,7.382s-4.3,5.043-4.63,7.021c0,0-9.985-17.019,2.288-27.221S96.355,506.048,91.843,510.252Z" transform="translate(-65.504 -494.442)" fill="#20313f"/>
            </g>
          </g>
        </g>
      </g>
      <g id="Group_5194" data-name="Group 5194" transform="translate(24.737 267.807)">
        <g id="Group_5193" data-name="Group 5193">
          <g id="Group_5192" data-name="Group 5192">
            <g id="Group_5191" data-name="Group 5191">
              <path id="Path_6439" data-name="Path 6439" d="M77.383,533.993c-.086-1.691-1.128-5.537-3.64-4.462s.155,8.911,1.82,8.43C75.562,537.96,77.588,537.992,77.383,533.993Z" transform="translate(-72.713 -529.344)" fill="#dba686"/>
            </g>
          </g>
        </g>
      </g>
      <g id="Group_5195" data-name="Group 5195" transform="translate(27.968 281.161)">
        <path id="Path_6440" data-name="Path 6440" d="M87.91,560.507c-.081.886-.17,1.885-.253,2.911h0c-7.781-3.841-8.973-9.379-9.008-9.552C84.191,561.029,87.91,560.507,87.91,560.507Z" transform="translate(-78.647 -553.866)" fill="#997761"/>
      </g>
      <g id="Group_5197" data-name="Group 5197" transform="translate(261.406 326.076)">
        <g id="Group_5196" data-name="Group 5196">
          <path id="Path_6441" data-name="Path 6441" d="M507.454,636.349s-1.743,13.445,7.973,23.77,31.624,6.645,31.624,6.645-3.624-12.2-11.567-17.232S511.939,642.773,507.454,636.349Z" transform="translate(-507.333 -636.349)" fill="#878f3f"/>
        </g>
      </g>
      <g id="Group_5199" data-name="Group 5199" transform="translate(268.913 300.574)">
        <g id="Group_5198" data-name="Group 5198">
          <path id="Path_6442" data-name="Path 6442" d="M525.037,589.517s-8.008,15.077-1.128,31.551S558.242,642.9,558.242,642.9s1.131-15.989-6-25.431S527.478,599.078,525.037,589.517Z" transform="translate(-521.119 -589.517)" fill="#587440"/>
        </g>
      </g>
      <g id="Group_5203" data-name="Group 5203" transform="translate(619.909 96.206)">
        <g id="Group_5200" data-name="Group 5200" transform="translate(0 10.541)">
          <path id="Path_6443" data-name="Path 6443" d="M1177.948,233.572s13.614,20.654,2.127,31.624-12.839-1.28-12.839-1.28-6.145.405,6.071-13.572C1179.066,243.757,1177.948,233.572,1177.948,233.572Z" transform="translate(-1165.691 -233.572)" fill="#bfce75"/>
        </g>
        <g id="Group_5201" data-name="Group 5201" transform="translate(10.466)">
          <path id="Path_6444" data-name="Path 6444" d="M1223.152,214.214s9.708,18.758-13.145,36.337-22.743,29.69-22.743,29.69S1171.175,236.763,1223.152,214.214Z" transform="translate(-1184.911 -214.214)" fill="#98a246"/>
        </g>
        <g id="Group_5202" data-name="Group 5202" transform="translate(7.049 23.164)">
          <path id="Path_6445" data-name="Path 6445" d="M1181.475,291.617c-8.685-.242,4.037-22.3,18.182-26.775s25.443-2.617,34.052-8.089C1233.709,256.753,1224.247,292.809,1181.475,291.617Z" transform="translate(-1178.636 -256.753)" fill="#587440"/>
        </g>
      </g>
      <g id="Group_5204" data-name="Group 5204" transform="translate(282.841 83.958)">
        <rect id="Rectangle_2117" data-name="Rectangle 2117" width="1.827" height="218.628" fill="#90c0fc"/>
      </g>
      <g id="Group_5205" data-name="Group 5205" transform="translate(148.864 241.267)">
        <rect id="Rectangle_2118" data-name="Rectangle 2118" width="150.934" height="1.829" fill="#90c0fc"/>
      </g>
      <g id="Group_5206" data-name="Group 5206" transform="translate(338.096 153.255)">
        <path id="Path_6446" data-name="Path 6446" d="M969.435,579.736H673.114c-13.756,0-24.947-11.693-24.947-26.063V345.04c0-14.369,11.191-26.06,24.947-26.06H969.435c13.756,0,24.948,11.691,24.948,26.06V553.673C994.383,568.043,983.191,579.736,969.435,579.736ZM673.114,321.173c-12.546,0-22.753,10.706-22.753,23.866V553.673c0,13.161,10.208,23.87,22.753,23.87H969.435c12.546,0,22.754-10.708,22.754-23.87V345.04c0-13.161-10.208-23.866-22.754-23.866Z" transform="translate(-648.167 -318.98)" fill="#70a5ee"/>
      </g>
      <g id="Group_5207" data-name="Group 5207" transform="translate(50.923)">
        <path id="Path_6447" data-name="Path 6447" d="M628.4,358.686q-1.122,0-2.222-.008l.012-2.193c3.228.018,6.591,0,9.856-.065l.042,2.191C633.545,358.661,630.957,358.686,628.4,358.686Zm-12.119-.181c-3.309-.1-6.637-.238-9.892-.418l.119-2.188c3.237.176,6.547.316,9.837.414Zm29.714-.208-.1-2.192c3.3-.148,6.608-.339,9.838-.57l.157,2.188C652.641,357.956,649.311,358.148,645.993,358.3Zm-49.485-.878c-6.205-.508-9.847-.986-9.883-.991l.288-2.175c.035.005,3.629.476,9.774.979Zm69.26-.543-.218-2.181c3.288-.329,6.581-.708,9.783-1.129l.285,2.175C672.393,356.164,669.08,356.546,665.768,356.876Zm19.659-2.581-.356-2.165c3.267-.536,6.525-1.132,9.68-1.765l.432,2.147C692,353.154,688.721,353.754,685.427,354.3Zm19.427-3.923-.516-2.131c3.221-.78,6.417-1.625,9.5-2.513l.609,2.106C711.331,348.731,708.106,349.585,704.854,350.372Zm19.062-5.51-.707-2.075c3.139-1.071,6.24-2.217,9.215-3.408l.815,2.037C730.227,342.621,727.091,343.781,723.916,344.863Zm18.448-7.408-.932-1.984c3-1.41,5.939-2.908,8.738-4.454l1.061,1.92C748.389,334.5,745.4,336.026,742.364,337.455Zm17.406-9.639-1.2-1.836c2.765-1.8,5.451-3.7,7.984-5.65l1.337,1.737C765.318,324.052,762.584,325.985,759.771,327.815Zm15.738-12.147-1.483-1.616c2.41-2.211,4.723-4.538,6.875-6.915l1.625,1.472C780.329,311.034,777.969,313.409,775.509,315.668Zm13.335-14.753-1.761-1.306c1.93-2.6,3.751-5.324,5.41-8.1l1.88,1.126C792.679,295.473,790.818,298.256,788.844,300.915Zm10.213-17.056-1.984-.936c1.37-2.9,2.624-5.929,3.727-9l2.064.742C801.737,277.8,800.456,280.893,799.057,283.859Zm6.74-18.688-2.123-.553c.807-3.089,1.5-6.3,2.058-9.532l2.16.373C807.323,258.755,806.618,262.022,805.8,265.17Zm3.412-19.553-2.183-.209c.3-3.175.5-6.459.59-9.764l2.193.059C809.719,239.058,809.519,242.393,809.21,245.618Zm-1.641-19.772c-.112-3.192-.321-6.484-.622-9.788l2.185-.2c.3,3.345.515,6.678.628,9.91Zm-1.753-19.537c-.446-3.168-.981-6.429-1.588-9.691l2.156-.4c.614,3.293,1.152,6.586,1.6,9.786ZM802.234,187c-.27-1.182-.551-2.381-.838-3.566-.484-2-1.017-3.993-1.579-5.916l2.1-.617c.575,1.957,1.115,3.981,1.607,6.017.289,1.194.573,2.4.845,3.6ZM796.7,168.289c-1.176-3.054-2.487-6.053-3.9-8.914l1.967-.969c1.438,2.92,2.776,5.98,3.975,9.094Zm-673.9-13.5-2-.912c1.382-3.029,2.812-6.038,4.249-8.941l1.966.974C125.588,148.789,124.169,151.776,122.8,154.785Zm665.3-3.915c-1.7-2.753-3.558-5.446-5.514-8l1.742-1.332c2,2.613,3.9,5.365,5.635,8.181ZM131.526,137.177l-1.93-1.042c1.581-2.933,3.216-5.836,4.86-8.629l1.891,1.112C134.716,131.389,133.095,134.268,131.526,137.177Zm644.775-1.72c-2.188-2.336-4.536-4.609-6.983-6.758l1.45-1.646c2.5,2.194,4.9,4.518,7.132,6.9Zm-14.584-12.846c-2.571-1.876-5.3-3.7-8.115-5.414l1.14-1.873c2.867,1.748,5.648,3.6,8.269,5.515ZM141.5,120.258l-1.844-1.189c1.8-2.8,3.67-5.561,5.547-8.212l1.789,1.268C145.13,114.749,143.282,117.486,141.5,120.258Zm603.576-7.826c-2.827-1.446-5.806-2.847-8.856-4.164l.869-2.013c3.092,1.335,6.117,2.756,8.985,4.225Zm-17.964-7.782c-2.987-1.09-6.116-2.143-9.3-3.129l.648-2.094c3.218,1,6.381,2.06,9.4,3.163Zm-574.264-.4-1.729-1.351c2.049-2.62,4.168-5.2,6.3-7.658l1.658,1.437C156.964,99.115,154.869,101.661,152.843,104.254Zm555.519-5.431c-3.075-.809-6.289-1.59-9.553-2.321l.478-2.14c3.291.737,6.532,1.523,9.633,2.34Zm-19.188-4.309c-3.128-.6-6.391-1.17-9.7-1.7l.351-2.166c3.325.54,6.608,1.117,9.755,1.716ZM669.737,91.35c-3.149-.436-6.439-.855-9.775-1.248l.258-2.178c3.351.394,6.653.817,9.818,1.254Zm-504.052-1.9-1.579-1.523c2.309-2.391,4.694-4.727,7.092-6.942l1.489,1.612C170.321,84.779,167.964,87.086,165.685,89.446Zm484.477-.412c-3.155-.319-6.458-.627-9.819-.918l.19-2.186c3.371.292,6.685.6,9.849.921Zm-19.652-1.711c-3.129-.235-6.439-.468-9.843-.692l.144-2.188c3.409.224,6.728.456,9.864.693Zm-19.694-1.306q-4.9-.29-9.83-.555l.118-2.19q4.931.268,9.841.556Zm-19.68-1.07q-4.694-.241-9.4-.476l-.469-.024.11-2.191.469.024q4.7.238,9.4.475Zm-19.746-1q-4.953-.253-9.9-.52l.118-2.19q4.939.266,9.889.519Zm-19.763-1.077c-3.478-.205-6.705-.407-9.867-.615l.144-2.189c3.157.208,6.379.409,9.851.615ZM531.9,81.563c-3.385-.255-6.7-.522-9.856-.794l.188-2.186c3.146.272,6.455.539,9.832.792ZM512.193,79.85c-3.357-.337-6.666-.7-9.836-1.067l.255-2.179c3.159.371,6.457.729,9.8,1.063ZM492.538,77.54c-3.341-.457-6.635-.946-9.792-1.451l.347-2.166c3.141.5,6.419.988,9.743,1.444ZM180.076,76.162l-1.389-1.7c2.562-2.1,5.211-4.134,7.873-6.049l1.281,1.781C185.215,72.087,182.6,74.094,180.076,76.162ZM472.99,74.4c-3.308-.62-6.574-1.283-9.709-1.972l.47-2.143c3.113.684,6.356,1.343,9.641,1.959Zm-19.349-4.265c-1.434-.368-2.874-.752-4.28-1.14l-5.256-1.45.583-2.116,5.257,1.451c1.393.383,2.821.765,4.243,1.129Zm-19.052-5.2q-4.75-1.3-9.522-2.582l.57-2.118q4.773,1.284,9.529,2.584Zm-238.625-.2L194.8,62.875c2.795-1.752,5.682-3.436,8.579-5l1.043,1.929C201.566,61.346,198.721,63.005,195.964,64.734Zm219.57-4.923c-3.285-.863-6.5-1.695-9.547-2.472l.541-2.124c3.056.778,6.274,1.612,9.564,2.476ZM213.18,55.424l-.918-1.991c2.98-1.373,6.059-2.673,9.147-3.866l.79,2.046C219.153,52.788,216.12,54.071,213.18,55.424Zm183.241-.476c-3.261-.8-6.487-1.57-9.588-2.293l.5-2.137c3.108.725,6.343,1.5,9.612,2.3Zm-19.2-4.471c-3.264-.717-6.507-1.4-9.64-2.043l.438-2.149c3.143.64,6.4,1.33,9.672,2.048ZM231.435,48.368l-.662-2.09c3.114-.989,6.325-1.905,9.546-2.724l.54,2.126C237.679,46.487,234.509,47.392,231.435,48.368Zm126.474-1.821c-3.275-.609-6.539-1.185-9.7-1.709l.359-2.165c3.175.528,6.453,1.1,9.742,1.717ZM250.426,43.528l-.421-2.151c3.2-.626,6.489-1.184,9.79-1.655l.309,2.17C256.841,42.359,253.586,42.91,250.426,43.528Zm88.052-.2c-3.293-.473-6.577-.9-9.759-1.281l.259-2.179c3.2.38,6.5.814,9.812,1.289Zm-19.545-2.311c-3.306-.3-6.606-.553-9.81-.748l.133-2.189c3.225.2,6.547.45,9.875.753Zm-49.074-.28-.206-2.184c3.23-.3,6.557-.543,9.89-.711l.109,2.191C276.353,40.2,273.058,40.436,269.86,40.738Zm29.441-.9c-2.473-.067-4.953-.1-7.368-.1q-1.232,0-2.459.011l-.02-2.193q1.236-.012,2.479-.011c2.436,0,4.935.034,7.429.1Z" transform="translate(-120.801 -37.541)" fill="#bebcba"/>
      </g>
      <g id="Group_5208" data-name="Group 5208" transform="translate(582.137 47.389)">
        <path id="Path_6448" data-name="Path 6448" d="M1232.462,182.71a63.527,63.527,0,0,0-6.8-16.4l6.923-10.413-9.6-9.6-9.605-9.6-10.412,6.923a63.571,63.571,0,0,0-16.4-6.8l-2.465-12.248h-27.167l-2.464,12.248a63.589,63.589,0,0,0-16.4,6.8l-10.411-6.923-9.6,9.6-9.606,9.6,6.923,10.413a63.6,63.6,0,0,0-6.8,16.4l-12.248,2.466v27.167l12.248,2.465a63.571,63.571,0,0,0,6.8,16.4l-6.923,10.413,9.606,9.6,9.6,9.606,10.412-6.924a63.556,63.556,0,0,0,16.4,6.8l2.464,12.248H1184.1l2.465-12.248a63.572,63.572,0,0,0,16.4-6.8l10.412,6.924,9.605-9.606,9.6-9.6-6.923-10.413a63.5,63.5,0,0,0,6.8-16.4l12.249-2.465V185.176Zm-61.943,63.646a47.6,47.6,0,1,1,47.6-47.6A47.6,47.6,0,0,1,1170.518,246.356Z" transform="translate(-1096.326 -124.567)" fill="#8cbefc"/>
      </g>
      <g id="Group_5209" data-name="Group 5209" transform="translate(296.198 127.467)">
        <path id="Path_6449" data-name="Path 6449" d="M931.357,296.585V505.217a24.967,24.967,0,0,1-24.967,24.967h-310.2a24.967,24.967,0,0,1-24.966-24.967V296.585a24.964,24.964,0,0,1,24.966-24.963h310.2A24.964,24.964,0,0,1,931.357,296.585Z" transform="translate(-571.225 -271.622)" fill="#dce6f3"/>
      </g>
      <g id="Group_5214" data-name="Group 5214" transform="translate(319.765 143.741)">
        <g id="Group_5210" data-name="Group 5210">
          <path id="Path_6450" data-name="Path 6450" d="M757.958,350.527A73.874,73.874,0,1,0,618.84,400.281c.558,1.563,1.167,3.1,1.819,4.6a73.876,73.876,0,0,0,137.3-54.359Zm-50.907,77.029a55.32,55.32,0,0,1-69.437-30.049q-.735-1.691-1.366-3.454a55.387,55.387,0,1,1,70.8,33.5Z" transform="translate(-614.504 -301.508)" fill="#90c0fc"/>
        </g>
        <g id="Group_5211" data-name="Group 5211" transform="translate(3.373 0.033)">
          <path id="Path_6451" data-name="Path 6451" d="M638.349,358.922l-17.65-5.511a73.979,73.979,0,0,1,68.313-51.842l.552,18.482a55.478,55.478,0,0,0-51.216,38.871Z" transform="translate(-620.699 -301.569)" fill="#385988"/>
        </g>
        <g id="Group_5212" data-name="Group 5212" transform="translate(0 51.875)">
          <path id="Path_6452" data-name="Path 6452" d="M637.614,440.9l-16.955,7.379c-.652-1.5-1.261-3.042-1.819-4.6a73.543,73.543,0,0,1-.963-46.9l17.65,5.511a55.128,55.128,0,0,0,.721,35.158Q636.878,439.2,637.614,440.9Z" transform="translate(-614.504 -396.772)" fill="#4772b0"/>
        </g>
        <g id="Group_5213" data-name="Group 5213" transform="translate(6.155 95.998)">
          <path id="Path_6453" data-name="Path 6453" d="M637.259,503.569a73.479,73.479,0,0,1-11.452-18.39l16.955-7.379a55.065,55.065,0,0,0,8.582,13.79Z" transform="translate(-625.807 -477.8)" fill="#70a5ee"/>
        </g>
      </g>
      <g id="Group_5219" data-name="Group 5219" transform="translate(320.532 300.454)">
        <g id="Group_5215" data-name="Group 5215">
          <path id="Path_6454" data-name="Path 6454" d="M637.35,660.584A37.438,37.438,0,1,0,669.373,592.9c-.76-.359-1.53-.693-2.3-1a37.439,37.439,0,0,0-29.722,68.681Zm-9.36-45.846a28.032,28.032,0,0,1,35.65-14.115q.868.342,1.727.748a28.069,28.069,0,1,1-37.377,13.367Z" transform="translate(-615.913 -589.295)" fill="#84afe7"/>
        </g>
        <g id="Group_5216" data-name="Group 5216" transform="translate(57.887 20.065)">
          <path id="Path_6455" data-name="Path 6455" d="M726.64,630.494l8.3-4.351a37.491,37.491,0,0,1-5.9,43.059l-6.82-6.427a28.115,28.115,0,0,0,4.423-32.281Z" transform="translate(-722.217 -626.143)" fill="#385988"/>
        </g>
        <g id="Group_5217" data-name="Group 5217" transform="translate(47.726 2.607)">
          <path id="Path_6456" data-name="Path 6456" d="M703.558,602.8l3.432-8.721c.771.305,1.541.639,2.3,1a37.284,37.284,0,0,1,17.149,16.46l-8.3,4.351a27.928,27.928,0,0,0-12.857-12.34Q704.428,603.147,703.558,602.8Z" transform="translate(-703.558 -594.083)" fill="#4772b0"/>
        </g>
        <g id="Group_5218" data-name="Group 5218" transform="translate(39.709 0.121)">
          <path id="Path_6457" data-name="Path 6457" d="M689.59,589.517A37.3,37.3,0,0,1,700.285,592l-3.432,8.721a27.867,27.867,0,0,0-8.017-1.867Z" transform="translate(-688.835 -589.517)" fill="#70a5ee"/>
        </g>
      </g>
      <g id="Group_5220" data-name="Group 5220" transform="translate(494.029 127.467)">
        <path id="Path_6458" data-name="Path 6458" d="M1096.824,296.585V505.217a24.968,24.968,0,0,1-24.967,24.967H934.524V271.622h137.333A24.964,24.964,0,0,1,1096.824,296.585Z" transform="translate(-934.524 -271.622)" fill="#70a5ee"/>
      </g>
      <g id="Group_5221" data-name="Group 5221" transform="translate(514.885 154.296)">
        <path id="Rectangle_2119" data-name="Rectangle 2119" d="M5.436,0H115.154a5.436,5.436,0,0,1,5.436,5.436V7.7a5.436,5.436,0,0,1-5.436,5.436H5.438A5.438,5.438,0,0,1,0,7.7V5.436A5.436,5.436,0,0,1,5.436,0Z" fill="#e6f1fd"/>
      </g>
      <g id="Group_5222" data-name="Group 5222" transform="translate(514.885 182.477)">
        <path id="Rectangle_2120" data-name="Rectangle 2120" d="M5.438,0H115.154a5.436,5.436,0,0,1,5.436,5.436V7.7a5.436,5.436,0,0,1-5.436,5.436H5.436A5.436,5.436,0,0,1,0,7.7V5.438A5.438,5.438,0,0,1,5.438,0Z" fill="#8cbefc"/>
      </g>
      <g id="Group_5223" data-name="Group 5223" transform="translate(514.885 214.798)">
        <path id="Rectangle_2121" data-name="Rectangle 2121" d="M18.281,0h84.028a18.28,18.28,0,0,1,18.28,18.28V130.288a18.28,18.28,0,0,1-18.28,18.28H18.282A18.282,18.282,0,0,1,0,130.286V18.281A18.281,18.281,0,0,1,18.281,0Z" fill="#8cbefc"/>
      </g>
      <g id="Group_5224" data-name="Group 5224" transform="translate(507.037 208.478)" opacity="0.58">
        <path id="Rectangle_2122" data-name="Rectangle 2122" d="M21.411,0h0A21.411,21.411,0,0,1,42.822,21.411V88.7a21.411,21.411,0,0,1-21.411,21.411h0A21.41,21.41,0,0,1,0,88.7V21.411A21.411,21.411,0,0,1,21.411,0Z" fill="#e3f0fd"/>
      </g>
      <g id="Group_5225" data-name="Group 5225" transform="translate(228.175 115.521)">
        <rect id="Rectangle_2123" data-name="Rectangle 2123" width="275.209" height="1.828" fill="#90c0fc"/>
      </g>
      <g id="Group_5226" data-name="Group 5226" transform="translate(240.984 70.905)">
        <path id="Path_6459" data-name="Path 6459" d="M484.584,197.255A14.751,14.751,0,1,1,499.335,182.5,14.769,14.769,0,0,1,484.584,197.255Zm0-27.308A12.557,12.557,0,1,0,497.141,182.5,12.572,12.572,0,0,0,484.584,169.947Z" transform="translate(-469.831 -167.752)" fill="#70a5ee"/>
      </g>
      <g id="Group_5228" data-name="Group 5228" transform="translate(198.041 268.45)">
        <g id="Group_5227" data-name="Group 5227">
          <path id="Path_6460" data-name="Path 6460" d="M409.131,530.575s13.779,2.462,13.9,14.131-10.553,28.568-17.492,27.318-14.83-7.41-14.563-14.509,2.235-16.424,5.434-21.542S405.281,530.322,409.131,530.575Z" transform="translate(-390.969 -530.524)" fill="#dba585"/>
        </g>
      </g>
      <g id="Group_5230" data-name="Group 5230" transform="translate(198.44 267.614)">
        <g id="Group_5229" data-name="Group 5229">
          <path id="Path_6461" data-name="Path 6461" d="M391.79,551.411s.025,2.382,4.765,4.268,13.446-.755,15.632-.318,2.833-.615,2.833-.615l.154,2.327,1.852,1.259s1.3-6.2,5.192-6.739,7.138-18.337-9.65-21.7c0,0-12.427-3.377-15.633,2.93S391.189,546.971,391.79,551.411Z" transform="translate(-391.702 -528.988)" fill="#cd7250"/>
        </g>
      </g>
      <g id="Group_5231" data-name="Group 5231" transform="translate(177.126 352.73)" opacity="0.82">
        <path id="Rectangle_2124" data-name="Rectangle 2124" d="M26.9,0h86.389a26.9,26.9,0,0,1,26.9,26.9v86.391a26.9,26.9,0,0,1-26.9,26.9H26.9A26.9,26.9,0,0,1,0,113.292V26.9A26.9,26.9,0,0,1,26.9,0Z" fill="#9bc7fc"/>
      </g>
      <g id="Group_5232" data-name="Group 5232" transform="translate(166.261 127.467)">
        <rect id="Rectangle_2125" data-name="Rectangle 2125" width="140.197" height="106.479" rx="25.792" fill="#e6f1fd"/>
      </g>
      <g id="Group_5233" data-name="Group 5233" transform="translate(252.159 373.335)">
        <path id="Rectangle_2126" data-name="Rectangle 2126" d="M5.5,0h43.46a5.5,5.5,0,0,1,5.5,5.5V9.581a5.5,5.5,0,0,1-5.5,5.5H5.5A5.5,5.5,0,0,1,0,9.582V5.5A5.5,5.5,0,0,1,5.5,0Z" fill="#e6f1fd"/>
      </g>
      <g id="Group_5234" data-name="Group 5234" transform="translate(252.159 396.081)">
        <path id="Rectangle_2127" data-name="Rectangle 2127" d="M12.658,0H41.8A12.659,12.659,0,0,1,54.457,12.659V67.266A12.659,12.659,0,0,1,41.8,79.925H12.66A12.66,12.66,0,0,1,0,67.265V12.658A12.658,12.658,0,0,1,12.658,0Z" fill="#e6f1fd"/>
      </g>
      <g id="Group_5240" data-name="Group 5240" transform="translate(191.608 367.066)">
        <g id="Group_5235" data-name="Group 5235">
          <path id="Path_6462" data-name="Path 6462" d="M396.175,760.412A25.053,25.053,0,0,0,429.259,737c.007-.563,0-1.125-.033-1.679a25.054,25.054,0,1,0-33.052,25.092Zm-10.749-23.976a18.787,18.787,0,0,1,36.442-6.174l0,.01a18.758,18.758,0,0,1,1.1,5.389c.02.416.027.835.024,1.259a18.784,18.784,0,1,1-37.565-.485Z" transform="translate(-379.156 -711.622)" fill="#e6f1fd"/>
        </g>
        <g id="Group_5236" data-name="Group 5236" transform="translate(17.018 36.555)">
          <path id="Path_6463" data-name="Path 6463" d="M433.295,778.752l4.957,3.84a25.087,25.087,0,0,1-27.844,8.4l2.012-5.941a18.808,18.808,0,0,0,20.875-6.295Z" transform="translate(-410.408 -778.752)" fill="#385988"/>
        </g>
        <g id="Group_5237" data-name="Group 5237" transform="translate(39.905 23.697)">
          <path id="Path_6464" data-name="Path 6464" d="M456.341,755.481l6.262-.341c.029.554.04,1.116.034,1.679a24.954,24.954,0,0,1-5.242,15.019L452.437,768a18.709,18.709,0,0,0,3.929-11.259C456.373,756.316,456.364,755.895,456.341,755.481Z" transform="translate(-452.437 -755.14)" fill="#4772b0"/>
        </g>
        <g id="Group_5238" data-name="Group 5238" transform="translate(42.712 16.499)">
          <path id="Path_6465" data-name="Path 6465" d="M458.691,749.461a18.758,18.758,0,0,0-1.1-5.389l0-.01,5.893-2.14a24.863,24.863,0,0,1,1.465,7.2Z" transform="translate(-457.592 -741.921)" fill="#4772b0"/>
        </g>
        <g id="Group_5239" data-name="Group 5239" transform="translate(9.983)">
          <path id="Path_6466" data-name="Path 6466" d="M397.489,716.663a25.055,25.055,0,0,1,38.622,11.458l-5.89,2.15,0-.01a18.786,18.786,0,0,0-29.052-8.517Z" transform="translate(-397.489 -711.622)" fill="#70a5ee"/>
        </g>
      </g>
      <g id="Group_5244" data-name="Group 5244" transform="translate(32.068 127.728)">
        <g id="Group_5241" data-name="Group 5241">
          <path id="Path_6467" data-name="Path 6467" d="M86.175,319.284l30.2-47.182-15.338,6.954Z" transform="translate(-86.175 -272.101)" fill="#d4d4d4"/>
        </g>
        <g id="Group_5242" data-name="Group 5242" transform="translate(0 12.492)">
          <path id="Path_6468" data-name="Path 6468" d="M86.175,329.732,88.019,301.3l10.97-6.254Z" transform="translate(-86.175 -295.042)" fill="#e6e6e6"/>
        </g>
        <g id="Group_5243" data-name="Group 5243" transform="translate(0 10.85)">
          <path id="Path_6469" data-name="Path 6469" d="M109.429,292.026,113.2,297,86.175,328.358Z" transform="translate(-86.175 -292.026)" fill="silver"/>
        </g>
      </g>
      <g id="Group_5245" data-name="Group 5245" transform="translate(240.314 354.442)">
        <path id="Path_6470" data-name="Path 6470" d="M470.163,693.924a4.165,4.165,0,0,0,2.138-.976c1.356-1.38,1.482-4.306,4.214-4.5s5.252,8.084,4.815,9.789-4.067,3.066-9.774,2.792S470.163,693.924,470.163,693.924Z" transform="translate(-468.6 -688.441)" fill="#dba585"/>
      </g>
      <g id="Group_5246" data-name="Group 5246" transform="translate(247.224 349.09)">
        <path id="Path_6471" data-name="Path 6471" d="M481.376,684.164a86.082,86.082,0,0,1,8.019-3.543c3.8-1.438,8.507-2.46,9.018-1.806,1.135,1.453-3.3,2.477-6.989,4.149a27.58,27.58,0,0,0-2.811,1.291s-.252-.084,3.74-1.069c4.292-1.059,8.777-1.72,9.35-.917.278.391.78,1.755-1.022,1.7.937-.184.789-.326.882.046.481,1.934-5.635,4.446-8.064,5.443,1.869-.755,3.314-1.115,2.811.3-.573,1.622-9.362,4.8-12.416,6.226C480.563,697.543,481.376,684.164,481.376,684.164Z" transform="translate(-481.289 -678.612)" fill="#dba585"/>
      </g>
      <g id="Group_5247" data-name="Group 5247" transform="translate(130.796 302.585)">
        <path id="Path_6472" data-name="Path 6472" d="M318.74,593.487a104.612,104.612,0,0,0-14.686,0c-6.076.622-14.473,5.595-19.554,7.03s-17.345,9.678-17.014,10.806a91.633,91.633,0,0,0,13.866,25.431C288.869,646.077,318.74,593.487,318.74,593.487Z" transform="translate(-267.48 -593.211)" fill="#d3d6e6"/>
      </g>
      <g id="Group_5248" data-name="Group 5248" transform="translate(146.631 308.268)">
        <path id="Path_6473" data-name="Path 6473" d="M313.407,603.647s-9.282,6.872-12.514,13.17a50.99,50.99,0,0,0-4.334,13.8Z" transform="translate(-296.559 -603.647)" fill="#a8aab7"/>
      </g>
      <g id="Group_5249" data-name="Group 5249" transform="translate(153.447 512.171)">
        <path id="Path_6474" data-name="Path 6474" d="M326.141,978.841a22.562,22.562,0,0,0,4.186,3.563c1.533.744,19.843,3.9,21.086,5.384s1.243,7.374-3.481,7.374-20.466-.082-23.117,0-13.85,2.321-15,0-1.046-13.145,1-15.742S326.141,978.841,326.141,978.841Z" transform="translate(-309.077 -978.095)" fill="#2e4354"/>
      </g>
      <g id="Group_5250" data-name="Group 5250" transform="translate(155.184 509.626)">
        <path id="Path_6475" data-name="Path 6475" d="M327.03,973.421l.564,3.291s-4.888,2.236-15.328.579v-3.4Z" transform="translate(-312.266 -973.421)" fill="#42617b"/>
      </g>
      <g id="Group_5251" data-name="Group 5251" transform="translate(52.949 503.804)">
        <path id="Path_6476" data-name="Path 6476" d="M130.318,962.73a18.061,18.061,0,0,0-3.066,5.468c-.648,1.973-3.728,11.187-2.4,13.423s11.766,2.569,16.986,1.74,16.57.911,17.731-1.325,1.823-5.5-1.574-6.771-11.185-4.581-12.594-8.063S130.318,962.73,130.318,962.73Z" transform="translate(-124.522 -962.73)" fill="#2e4354"/>
      </g>
      <g id="Group_5252" data-name="Group 5252" transform="translate(58.745 496.927)">
        <path id="Path_6477" data-name="Path 6477" d="M151.694,957.723l-1.447,3.727s-14.956-1.119-15.081-4.472l4.724-6.878Z" transform="translate(-135.166 -950.1)" fill="#42617b"/>
      </g>
      <g id="Group_5255" data-name="Group 5255" transform="translate(187.012 296.514)">
        <g id="Group_5254" data-name="Group 5254">
          <g id="Group_5253" data-name="Group 5253">
            <path id="Path_6478" data-name="Path 6478" d="M381.773,582.061s-8.336,7.08-10.708,6.5,8.176,14.977,8.176,14.977,10.043-9.885,12.306-10.185S381.773,582.061,381.773,582.061Z" transform="translate(-370.716 -582.061)" fill="#dba585"/>
          </g>
        </g>
      </g>
      <g id="Group_5256" data-name="Group 5256" transform="translate(195.56 320.697)">
        <path id="Path_6479" data-name="Path 6479" d="M389.488,630.247c-2.838,1.716-3.315,2.266-2.982,10.387s3.7,14.663,3.948,16.9,4.759,24.427,6,25.668,16.1-1.652,19.1-2.582c4.5-1.393,23.531-7.84,23.531-7.84l-4.187-8.731s-24.028,5.358-24.8,3.481-2.655-17.651-3.318-21.075.492-8.806-3.6-16.93C399.52,622.253,389.488,630.247,389.488,630.247Z" transform="translate(-386.413 -626.471)" fill="#d3d6e6"/>
      </g>
      <g id="Group_5257" data-name="Group 5257" transform="translate(122.237 367.009)">
        <path id="Path_6480" data-name="Path 6480" d="M299.986,730.073s5.093,5.419,6.518,7.183c9.755,12.055,23.034,34.19,24.691,38.057s-8.207,31.212-12.261,40.766c-2.127,5.009-16.185,39.523-15.744,40.3s-14.874,1.283-21.722-2.252c0,0,9.849-29.177,11.923-34.9,3.134-8.64,14-32.567,14.328-34.887s-17.561-21.451-23.527-25.1-20.548-16.571-22.206-18.228-11.048-6.077-10.164-14.474,7.126-15.023,7.126-15.023Z" transform="translate(-251.762 -711.518)" fill="#4b6e9c"/>
      </g>
      <g id="Group_5258" data-name="Group 5258" transform="translate(60.32 365.606)">
        <path id="Path_6481" data-name="Path 6481" d="M221.426,749.674s-.931,2.453-2.24,5.89c-2.811,7.382-7.351,19.293-8.107,21.175-1.1,2.764-6.628,14.694-9.28,17.016s-46.286,54.683-46.4,55.124-16.349-7.953-17.343-11.159c0,0,23.641-30.822,27.286-35.347s11.269-11.27,13.81-21.989,20.764-51.921,20.821-53.47c0,0,2.933-12.7,7.185-16.569s19.721.663,22.15,8.724S221.426,749.674,221.426,749.674Z" transform="translate(-138.057 -708.942)" fill="#4b6e9c"/>
      </g>
      <g id="Group_5259" data-name="Group 5259" transform="translate(186.606 301.551)">
        <path id="Path_6482" data-name="Path 6482" d="M369.97,592.7l3.522-1.39s8.894,2.044,14.03,9.17l-.441,2.13S373.518,599.669,369.97,592.7Z" transform="translate(-369.97 -591.311)" fill="#d3d6e6"/>
      </g>
      <g id="Group_5260" data-name="Group 5260" transform="translate(197.275 344.243)">
        <path id="Path_6483" data-name="Path 6483" d="M392.471,680.283a14.279,14.279,0,0,1-1.66,2.029c-.252.218-.557.472-.909.758a.009.009,0,0,1-.006,0l-.335-13.364s1.677,5.15,1.926,5.913S392.471,680.283,392.471,680.283Z" transform="translate(-389.562 -669.71)" fill="#a8aab7"/>
      </g>
      <g id="Group_5261" data-name="Group 5261" transform="translate(131.701 395.891)">
        <path id="Path_6484" data-name="Path 6484" d="M281.131,775s-.931,2.453-2.24,5.89c-2.969-3.418-9.747-16.337-9.747-16.337.442.316,1.86,1.648,2.189,1.943S281.131,775,281.131,775Z" transform="translate(-269.143 -764.557)" fill="#3b5b86"/>
      </g>
      <g id="Group_5263" data-name="Group 5263" transform="translate(214.658 289.592)">
        <g id="Group_5262" data-name="Group 5262">
          <path id="Path_6485" data-name="Path 6485" d="M426.408,572.7c.313-1.012-.443-4.881-2.913-2.678s-2.46,7.137-1.066,7.542S425.614,575.264,426.408,572.7Z" transform="translate(-421.485 -569.35)" fill="#dba585"/>
        </g>
      </g>
      <g id="Group_5265" data-name="Group 5265" transform="translate(198.325 270.054)">
        <g id="Group_5264" data-name="Group 5264">
          <path id="Path_6486" data-name="Path 6486" d="M403.513,534.632s-11.957-8.5-12.023,20.488Z" transform="translate(-391.49 -533.47)" fill="#cd7250"/>
        </g>
      </g>
      <g id="Group_5266" data-name="Group 5266" transform="translate(129.421 302.847)">
        <path id="Path_6487" data-name="Path 6487" d="M335.719,645.659a14.271,14.271,0,0,1-1.66,2.029c-.252.218-.557.472-.909.758,0,0-.006,0-.006,0a139.9,139.9,0,0,1-14.441,9.843c-3.867,2.1-11.2,19.79-11.2,19.79s-34.593-2.336-42.548-20.23c0,0,5.635-12.595,10.773-20.053s16.4-34.3,22.37-38.112,11.1-6.3,22.869-5.968,18.284,9.669,18.284,9.669,8.949,9.611,9.831,14.692C349.843,622.452,340.129,639.512,335.719,645.659Z" transform="translate(-264.956 -593.69)" fill="#d3d6e6"/>
      </g>
      <g id="Group_5267" data-name="Group 5267" transform="translate(166.018 127.467)">
        <path id="Path_6488" data-name="Path 6488" d="M472.6,285.667l-.244,7.8h-140.2l.243-7.8a14.044,14.044,0,0,1,14.045-14.045H458.558A14.044,14.044,0,0,1,472.6,285.667Z" transform="translate(-332.162 -271.622)" fill="#70a5ee"/>
      </g>
      <g id="Group_5268" data-name="Group 5268" transform="translate(175.42 155.523)">
        <path id="Path_6489" data-name="Path 6489" d="M384.246,392.6H356.038a6.616,6.616,0,0,1-6.61-6.609V329.754a6.617,6.617,0,0,1,6.61-6.61h28.208a6.618,6.618,0,0,1,6.611,6.61v56.233A6.618,6.618,0,0,1,384.246,392.6Zm-28.208-67.258a4.421,4.421,0,0,0-4.417,4.416v56.233a4.421,4.421,0,0,0,4.417,4.416h28.208a4.422,4.422,0,0,0,4.417-4.416V329.754a4.422,4.422,0,0,0-4.417-4.416Z" transform="translate(-349.428 -323.144)" fill="#90c0fc"/>
      </g>
      <g id="Group_5269" data-name="Group 5269" transform="translate(224.331 156.619)">
        <path id="Rectangle_2128" data-name="Rectangle 2128" d="M2.925,0H68.67a2.925,2.925,0,0,1,2.925,2.925v0a2.924,2.924,0,0,1-2.924,2.924H2.923A2.923,2.923,0,0,1,0,2.926v0A2.925,2.925,0,0,1,2.925,0Z" fill="#90c0fc"/>
      </g>
      <g id="Group_5270" data-name="Group 5270" transform="translate(224.331 168.498)">
        <path id="Rectangle_2129" data-name="Rectangle 2129" d="M2.924,0H68.671a2.924,2.924,0,0,1,2.924,2.924v0A2.925,2.925,0,0,1,68.67,5.849H2.923A2.923,2.923,0,0,1,0,2.926v0A2.924,2.924,0,0,1,2.924,0Z" fill="#90c0fc"/>
      </g>
      <g id="Group_5271" data-name="Group 5271" transform="translate(409.136 308.831)">
        <path id="Rectangle_2130" data-name="Rectangle 2130" d="M5.668,0H45.506a5.67,5.67,0,0,1,5.67,5.67V7.976A5.672,5.672,0,0,1,45.5,13.648H5.67A5.67,5.67,0,0,1,0,7.977V5.668A5.668,5.668,0,0,1,5.668,0Z" fill="#84afe7"/>
      </g>
      <g id="Group_5272" data-name="Group 5272" transform="translate(409.136 331.077)">
        <path id="Rectangle_2131" data-name="Rectangle 2131" d="M5.668,0H45.506a5.67,5.67,0,0,1,5.67,5.67V7.977a5.669,5.669,0,0,1-5.669,5.669H5.67A5.67,5.67,0,0,1,0,7.976V5.668A5.668,5.668,0,0,1,5.668,0Z" fill="#70a5ee"/>
      </g>
      <g id="Group_5273" data-name="Group 5273" transform="translate(409.136 353.322)">
        <path id="Rectangle_2132" data-name="Rectangle 2132" d="M5.67,0H45.506a5.67,5.67,0,0,1,5.67,5.67V7.978a5.668,5.668,0,0,1-5.668,5.668H5.67A5.67,5.67,0,0,1,0,7.976V5.67A5.67,5.67,0,0,1,5.67,0Z" fill="#4772b0"/>
      </g>
      <g id="Group_5274" data-name="Group 5274" transform="translate(176.517 133.224)">
        <path id="Path_6490" data-name="Path 6490" d="M363.627,288.286a6.092,6.092,0,1,1-6.093-6.092A6.093,6.093,0,0,1,363.627,288.286Z" transform="translate(-351.443 -282.194)" fill="#e6f1fd"/>
      </g>
      <g id="Group_5276" data-name="Group 5276" transform="translate(646.978 313.817)">
        <g id="Group_5275" data-name="Group 5275">
          <path id="Path_6491" data-name="Path 6491" d="M1215.4,649.94s24.768,7.994,30.485,6.586c3.023-.747,7.747-5.032,12.138-9.654.726-.766,1.444-1.54,2.144-2.309,4.843-5.327,8.8-10.405,8.8-10.405s12-14.06,2.369-20.322a12.852,12.852,0,0,0-7.457,3.839,49.115,49.115,0,0,0-7.061,10.756c-.838,1.833-12.621,18.825-13.234,19.206s-5.759-.971-9.887-1.314c-6.729-.559-16.8-3.991-16.8-3.991Z" transform="translate(-1215.4 -613.836)" fill="#4772b0"/>
        </g>
      </g>
      <g id="Group_5277" data-name="Group 5277" transform="translate(661.25 502.507)">
        <path id="Path_6492" data-name="Path 6492" d="M1261.381,960.348s-3.151,5.639-5.023,6.782c-2.334,1.424-6.859,5.989-8.442,6.2s-7.266,1.22-6.168,4.428c.9,2.632,14.459,2.256,15.988.936s6.1-6.047,7.947-5.943,1.159,6.822,1.159,6.822h2s.7-6.536.784-7.661c.25-3.324-2.121-5.772-2.226-7.669s-.214-3.314-.214-3.314Z" transform="translate(-1241.608 -960.348)" fill="#1f2531"/>
      </g>
      <g id="Group_5278" data-name="Group 5278" transform="translate(668.011 502.163)">
        <path id="Path_6493" data-name="Path 6493" d="M1254.024,972.889s4.47,1.544,7.911-.431,10.04-4.98,12.375-5c0,0-1.273-3.9-1.3-4.328s-.167-2.487-.167-2.487l-5.77-.926s-3.746,5.5-5.395,6.79A93.321,93.321,0,0,0,1254.024,972.889Z" transform="translate(-1254.024 -959.715)" fill="#dba585"/>
      </g>
      <g id="Group_5279" data-name="Group 5279" transform="translate(730.039 506.407)">
        <path id="Path_6494" data-name="Path 6494" d="M1373.409,968.915a24.214,24.214,0,0,1-1.165,4.964c-.607,1.066-2.279,6.487-3.039,7.5s-2.434,8.616,0,9.525,8.158,2.434,10.083-.605a12.5,12.5,0,0,0,1.874-8.412c-.3-2.332-2.617-13.03-2.584-14.089S1373.409,968.915,1373.409,968.915Z" transform="translate(-1367.934 -967.509)" fill="#dba585"/>
      </g>
      <g id="Group_5280" data-name="Group 5280" transform="translate(729.301 518.171)">
        <path id="Path_6495" data-name="Path 6495" d="M1369.557,989.113s-.261,5.908,4.2,5.908,6.434-5.375,6.434-5.375,1.519,2.638,0,8.261-7.853,4.46-9.273,4.257S1362.774,1000.183,1369.557,989.113Z" transform="translate(-1366.578 -989.113)" fill="#1f2531"/>
      </g>
      <g id="Group_5281" data-name="Group 5281" transform="translate(695.791 370.754)">
        <path id="Path_6496" data-name="Path 6496" d="M1337.407,720.92s5.765,7.347,7.8,12.206,5.426,15.514,4.973,23.763-3.165,23.734-2.374,27.237,1.581,10.736,2.428,13.223,4.24,9.719,4.579,17.177-2.414,40.18-2.189,43.233-9.874,1.187-9.874,1.187-.258-29.5-1.387-34.585-2.486-22.379-3.5-23.621-3.872-14.355-4.055-16.495c-.178-2.073-12.27-37.916-12.947-44.018s-15.818-19.307-15.818-19.307A52.836,52.836,0,0,1,1337.407,720.92Z" transform="translate(-1305.04 -718.396)" fill="#385988"/>
      </g>
      <g id="Group_5282" data-name="Group 5282" transform="translate(679.621 368.85)">
        <path id="Path_6497" data-name="Path 6497" d="M1286.331,850.173c2.147-.336,7.9-33.394,7.22-39.273s-1.355-18.408.567-23.5c1.261-3.342,9.138-20.349,14.438-32.29.747-1.687,1.444-3.27,2.065-4.7a52.818,52.818,0,0,0,2.822-7.208c.114-2.259,7.483-41.2-21.631-23.877a35.033,35.033,0,0,1-.632,4.212c-.339,1.127-8.139,29.951-8.929,41.027a219.034,219.034,0,0,1-3.163,22.835,48.952,48.952,0,0,0,1.016,12.313c.676,2.034-4.41,47.966-4.75,49.1S1284.185,850.513,1286.331,850.173Z" transform="translate(-1275.345 -714.9)" fill="#385988"/>
      </g>
      <g id="Group_5284" data-name="Group 5284" transform="translate(688.94 311.472)">
        <g id="Group_5283" data-name="Group 5283">
          <path id="Path_6498" data-name="Path 6498" d="M1311.029,609.817s-5.511,2.6-7.423,2.984-9.337,10.02-10.639,13.54,0,8.8,2.675,14.994.151,8.265,1.373,14.461,2.291,19.32,2.062,22.762,30.944,4.1,38.059-2.172c0,0-7.149-10.712-8.065-12.241s-.151-9.87.691-12.012,6.808-19.838,6.808-19.838,4.226-14.511.087-17.728c-3.595-2.791-13.4-3.789-15.154-4.4S1314.623,609.284,1311.029,609.817Z" transform="translate(-1292.458 -609.531)" fill="#e6d8d1"/>
        </g>
      </g>
      <g id="Group_5286" data-name="Group 5286" transform="translate(702.4 309.799)">
        <g id="Group_5285" data-name="Group 5285">
          <path id="Path_6499" data-name="Path 6499" d="M1320.523,620.7l-3.346-3.922,2.91-10.317A68.068,68.068,0,0,1,1320.523,620.7Z" transform="translate(-1317.177 -606.458)" fill="#cfc3bc"/>
        </g>
      </g>
      <g id="Group_5288" data-name="Group 5288" transform="translate(704.882 297.865)">
        <g id="Group_5287" data-name="Group 5287">
          <path id="Path_6500" data-name="Path 6500" d="M1321.734,592.081s1.1,10.105.866,13.394c0,0,5.721,5.737,12.236-6.692a17.072,17.072,0,0,1-.676-12.107C1336.225,579.7,1321.734,592.081,1321.734,592.081Z" transform="translate(-1321.734 -584.543)" fill="#dba585"/>
        </g>
      </g>
      <g id="Group_5290" data-name="Group 5290" transform="translate(705.747 318.797)">
        <g id="Group_5289" data-name="Group 5289">
          <path id="Path_6501" data-name="Path 6501" d="M1323.324,622.981v5.242l6.589-4.922Z" transform="translate(-1323.323 -622.981)" fill="#dba585"/>
        </g>
      </g>
      <g id="Group_5292" data-name="Group 5292" transform="translate(705.747 311.474)">
        <g id="Group_5291" data-name="Group 5291">
          <path id="Path_6502" data-name="Path 6502" d="M1323.323,622.1l2.735-3.385,9.214-9.179,2.981,2.87Z" transform="translate(-1323.323 -609.534)" fill="#cfc3bc"/>
        </g>
      </g>
      <g id="Group_5294" data-name="Group 5294" transform="translate(710.843 312.589)">
        <g id="Group_5293" data-name="Group 5293">
          <path id="Path_6503" data-name="Path 6503" d="M1338.167,684.454c2.594,12.419,21.36-1.4,21.36-1.4s-12.168-20.445-7.326-36.788c.037-.13.076-.258.115-.386.309-1.034.618-2.014.925-2.95.054-.167.11-.335.164-.5,1.057-3.213,1.921-5.87,2.622-8.055v0c2.16-6.728,2.787-8.941,2.787-8.941s-.925-10.469-6.094-11.618c-5.19-1.153-10.677-2.237-10.677-2.237s-8.962,11.494-9.333,16.659S1335.572,672.035,1338.167,684.454Z" transform="translate(-1332.682 -611.582)" fill="#4772b0"/>
        </g>
      </g>
      <g id="Group_5296" data-name="Group 5296" transform="translate(688.66 313.57)">
        <g id="Group_5295" data-name="Group 5295">
          <path id="Path_6504" data-name="Path 6504" d="M1291.966,630.473s-.581,7.118,4.309,16.47c0,0-.107,12.52-.26,16.881s-1.19,20.846-1.19,20.846l5.371,3.151a1.516,1.516,0,0,0,2.272-1.492c-1.519-12.549-6.458-60.155,4.238-72.946l-4.764,1.644S1291.966,625.491,1291.966,630.473Z" transform="translate(-1291.945 -613.383)" fill="#4772b0"/>
        </g>
      </g>
      <g id="Group_5298" data-name="Group 5298" transform="translate(698.181 309.799)">
        <g id="Group_5297" data-name="Group 5297">
          <path id="Path_6505" data-name="Path 6505" d="M1313.649,616.776l-4.219,1.165,7.128-11.483Z" transform="translate(-1309.43 -606.458)" fill="#f3e4dc"/>
        </g>
      </g>
      <g id="Group_5300" data-name="Group 5300" transform="translate(708.481 311.474)">
        <g id="Group_5299" data-name="Group 5299">
          <path id="Path_6506" data-name="Path 6506" d="M1328.345,618.713l3.851,5.051,7.874-13.115-2.51-1.115Z" transform="translate(-1328.345 -609.534)" fill="#f3e4dc"/>
        </g>
      </g>
      <g id="Group_5301" data-name="Group 5301" transform="translate(693.352 272.735)">
        <path id="Path_6507" data-name="Path 6507" d="M1316.08,538.444c-4.032-.389-13.089,1.217-14.979,11.859a33.286,33.286,0,0,0,.778,5.2c.592,2.3-1.758,8.892-1.244,9.247a14.742,14.742,0,0,0,2.686.881s2.01,7.417,4.579,7.476,12.371-1.483,17.376-10.353S1332.356,540.007,1316.08,538.444Z" transform="translate(-1300.562 -538.392)" fill="#dba585"/>
      </g>
      <g id="Group_5302" data-name="Group 5302" transform="translate(693.867 271.072)">
        <path id="Path_6508" data-name="Path 6508" d="M1301.532,548.912s6.344,4.783,12.811,6,9.962,12.46,9.962,12.46,10.845-16.3,3.334-26.736S1300.708,536.366,1301.532,548.912Z" transform="translate(-1301.507 -535.338)" fill="#3a4252"/>
      </g>
      <g id="Group_5303" data-name="Group 5303" transform="translate(709.177 288.44)">
        <path id="Path_6509" data-name="Path 6509" d="M1329.87,569.264c.094-1.258,1.588-3.081,3.57-1.261s-1.078,7.677-2.742,7.012S1329.771,570.566,1329.87,569.264Z" transform="translate(-1329.622 -567.235)" fill="#dba585"/>
      </g>
      <g id="Group_5304" data-name="Group 5304" transform="translate(704.867 302.505)">
        <path id="Path_6510" data-name="Path 6510" d="M1321.707,597.419c.146.785.3,1.7.419,2.676a28.149,28.149,0,0,0,8.27-7.034C1327.256,595.641,1321.707,597.419,1321.707,597.419Z" transform="translate(-1321.707 -593.062)" fill="#997761"/>
      </g>
      <g id="Group_5305" data-name="Group 5305" transform="translate(581.55 305.534)" opacity="0.86">
        <path id="Path_6511" data-name="Path 6511" d="M1103.183,668.246l80.436.4a7.972,7.972,0,0,0,8.014-7.936l.265-53.668a7.974,7.974,0,0,0-7.936-8.015l-80.434-.4a7.975,7.975,0,0,0-8.015,7.935l-.265,53.669A7.978,7.978,0,0,0,1103.183,668.246Z" transform="translate(-1095.248 -598.626)" fill="#e3f0fd"/>
      </g>
      <g id="Group_5306" data-name="Group 5306" transform="translate(620.094 313.712)">
        <path id="Path_6512" data-name="Path 6512" d="M1170.758,669.7l41.946.206a4.751,4.751,0,0,0,4.776-4.728l.229-46.544a4.753,4.753,0,0,0-4.73-4.778l-41.944-.208a4.755,4.755,0,0,0-4.777,4.73l-.229,46.544A4.755,4.755,0,0,0,1170.758,669.7Z" transform="translate(-1166.029 -613.644)" fill="#afd2fc"/>
      </g>
      <g id="Group_5307" data-name="Group 5307" transform="translate(590.412 361.192)">
        <path id="Path_6513" data-name="Path 6513" d="M1112.852,709.39l23.96.118a1.335,1.335,0,0,0,1.343-1.329l.028-5.881a1.335,1.335,0,0,0-1.329-1.341l-23.96-.119a1.335,1.335,0,0,0-1.343,1.329l-.03,5.88A1.337,1.337,0,0,0,1112.852,709.39Z" transform="translate(-1111.522 -700.836)" fill="#afd2fc"/>
      </g>
      <g id="Group_5308" data-name="Group 5308" transform="translate(590.425 356.077)">
        <path id="Path_6514" data-name="Path 6514" d="M1112.269,693.975l25.178.122a.725.725,0,0,0,.731-.722l0-1.078a.725.725,0,0,0-.723-.73l-25.178-.124a.725.725,0,0,0-.73.723l-.005,1.08A.726.726,0,0,0,1112.269,693.975Z" transform="translate(-1111.545 -691.443)" fill="#afd2fc"/>
      </g>
      <g id="Group_5311" data-name="Group 5311" transform="translate(662.089 350.478)">
        <g id="Group_5309" data-name="Group 5309" transform="translate(12.081 0.367)">
          <path id="Path_6515" data-name="Path 6515" d="M1272.332,684.015a2.972,2.972,0,0,1-1.677-.121c-1.256-.586-2.073-2.513-3.952-1.96s-1.494,6.729-.775,7.762,3.492,1.035,7.247-.577S1272.332,684.015,1272.332,684.015Z" transform="translate(-1265.336 -681.835)" fill="#dba585"/>
        </g>
        <g id="Group_5310" data-name="Group 5310">
          <path id="Path_6516" data-name="Path 6516" d="M1257.263,681.529a61,61,0,0,0-6.259-.367c-2.907-.01-6.272.5-6.493,1.048-.245.613,2.921.426,5.81.622,2.658.181,2.118.569,2.118.569s.148-.119-2.773.222c-3.14.364-6.311,1.042-6.494,1.724-.089.332.06.514,1.23.559-.675.108-.731.3-.7.576.162,1.415,4.888,1.566,6.765,1.627-1.442-.038-2.5.082-1.808.906.79.944,7.472.871,9.875,1.064C1261.156,690.287,1257.263,681.529,1257.263,681.529Z" transform="translate(-1243.15 -681.161)" fill="#dba585"/>
        </g>
      </g>
      <g id="Group_5312" data-name="Group 5312" transform="translate(714.521 282.343)">
        <path id="Path_6517" data-name="Path 6517" d="M1340.393,561.906c-1.982,4.512-.783,9.4,2.677,10.923s7.874-.9,9.855-5.415.784-9.4-2.676-10.924S1342.375,557.394,1340.393,561.906Z" transform="translate(-1339.437 -556.037)" fill="#3a4252"/>
      </g>
      <g id="Group_5314" data-name="Group 5314" transform="translate(680.662 315.214)">
        <g id="Group_5313" data-name="Group 5313">
          <path id="Path_6518" data-name="Path 6518" d="M1328.532,616.4s-5.133.946-7.671,4.906a56.255,56.255,0,0,0-5.634,11.548c-.5,1.956-10.126,19.9-10.659,20.389s-5.84.08-9.961.483c-6.724.659-17.248-.906-17.248-.906l-.1,7.754s25.8,3.409,31.173,1c6.566-2.95,22.456-25.144,22.456-25.144S1339.129,620.836,1328.532,616.4Z" transform="translate(-1277.257 -616.402)" fill="#4772b0"/>
        </g>
      </g>
      <g id="Group_5315" data-name="Group 5315" transform="translate(721.51 335.386)">
        <path id="Path_6519" data-name="Path 6519" d="M1352.27,669.556l10.058-8.055c1.057-3.213,1.921-5.87,2.622-8.055C1364.95,653.446,1354.755,666.8,1352.27,669.556Z" transform="translate(-1352.27 -653.446)" fill="#385988"/>
      </g>
      <g id="Group_5316" data-name="Group 5316" transform="translate(688.695 334.232)">
        <path id="Path_6520" data-name="Path 6520" d="M1292.915,663.947c.726-.766,1.444-1.54,2.144-2.309,0,0-2.724-7.247-2.9-10.313A44.9,44.9,0,0,0,1292.915,663.947Z" transform="translate(-1292.01 -651.326)" fill="#385988"/>
      </g>
      <g id="Group_5321" data-name="Group 5321" transform="translate(590.432 312.505)">
        <g id="Group_5317" data-name="Group 5317">
          <path id="Path_6521" data-name="Path 6521" d="M1134.408,619.234a11.766,11.766,0,1,0-22.158,7.924c.089.251.186.5.291.733a11.642,11.642,0,0,0,1.823,2.929,11.768,11.768,0,0,0,20.045-11.586ZM1126.3,631.5a8.81,8.81,0,0,1-11.059-4.787q-.117-.269-.217-.549A8.821,8.821,0,1,1,1126.3,631.5Z" transform="translate(-1111.559 -611.426)" fill="#8cbefc"/>
        </g>
        <g id="Group_5318" data-name="Group 5318" transform="translate(0.537 0.005)">
          <path id="Path_6522" data-name="Path 6522" d="M1115.357,620.57l-2.812-.877a11.782,11.782,0,0,1,10.88-8.257l.088,2.943a8.841,8.841,0,0,0-8.157,6.191Z" transform="translate(-1112.545 -611.436)" fill="#8cbefc"/>
        </g>
        <g id="Group_5319" data-name="Group 5319" transform="translate(0 8.262)">
          <path id="Path_6523" data-name="Path 6523" d="M1115.239,633.625l-2.7,1.176c-.1-.237-.2-.482-.291-.733a11.712,11.712,0,0,1-.154-7.469l2.811.877a8.784,8.784,0,0,0,.115,5.6Q1115.123,633.356,1115.239,633.625Z" transform="translate(-1111.559 -626.599)" fill="#8cbefc"/>
        </g>
        <g id="Group_5320" data-name="Group 5320" transform="translate(0.981 15.288)">
          <path id="Path_6524" data-name="Path 6524" d="M1115.184,643.607a11.649,11.649,0,0,1-1.823-2.929l2.7-1.176a8.753,8.753,0,0,0,1.367,2.2Z" transform="translate(-1113.361 -639.502)" fill="#8cbefc"/>
        </g>
      </g>
      <g id="Group_5326" data-name="Group 5326" transform="translate(590.646 337.756)">
        <g id="Group_5322" data-name="Group 5322">
          <path id="Path_6525" data-name="Path 6525" d="M1121.336,661.006a4.833,4.833,0,0,0-9.1,3.255c.038.1.077.2.119.3a4.784,4.784,0,0,0,.75,1.2,4.833,4.833,0,0,0,8.233-4.758Zm-3.33,5.039a3.614,3.614,0,0,1-4.544-1.966c-.031-.073-.062-.149-.089-.225a3.623,3.623,0,1,1,4.633,2.192Z" transform="translate(-1111.951 -657.797)" fill="#8cbefc"/>
        </g>
        <g id="Group_5323" data-name="Group 5323" transform="translate(0.221 0.002)">
          <path id="Path_6526" data-name="Path 6526" d="M1113.511,661.554l-1.154-.361a4.842,4.842,0,0,1,4.469-3.392l.035,1.212a3.617,3.617,0,0,0-3.35,2.541Z" transform="translate(-1112.357 -657.801)" fill="#8cbefc"/>
        </g>
        <g id="Group_5324" data-name="Group 5324" transform="translate(0 3.394)">
          <path id="Path_6527" data-name="Path 6527" d="M1113.463,666.917l-1.109.483c-.043-.1-.082-.2-.119-.3a4.817,4.817,0,0,1-.062-3.07l1.154.361a3.6,3.6,0,0,0,.047,2.3C1113.4,666.768,1113.432,666.844,1113.463,666.917Z" transform="translate(-1111.951 -664.03)" fill="#8cbefc"/>
        </g>
        <g id="Group_5325" data-name="Group 5325" transform="translate(0.402 6.281)">
          <path id="Path_6528" data-name="Path 6528" d="M1113.44,671.016a4.78,4.78,0,0,1-.75-1.2l1.109-.483a3.615,3.615,0,0,0,.561.9Z" transform="translate(-1112.69 -669.331)" fill="#8cbefc"/>
        </g>
      </g>
      <g id="Group_5327" data-name="Group 5327" transform="translate(225.999 192.468)">
        <rect id="Rectangle_2133" data-name="Rectangle 2133" width="8.54" height="31.41" fill="#90c0fc"/>
      </g>
      <g id="Group_5328" data-name="Group 5328" transform="translate(238.151 189.299)">
        <rect id="Rectangle_2134" data-name="Rectangle 2134" width="8.541" height="34.58" fill="#90c0fc"/>
      </g>
      <g id="Group_5329" data-name="Group 5329" transform="translate(250.467 195.879)">
        <rect id="Rectangle_2135" data-name="Rectangle 2135" width="8.539" height="27.999" fill="#90c0fc"/>
      </g>
      <g id="Group_5330" data-name="Group 5330" transform="translate(262.782 182.903)">
        <rect id="Rectangle_2136" data-name="Rectangle 2136" width="8.54" height="40.975" fill="#90c0fc"/>
      </g>
      <g id="Group_5331" data-name="Group 5331" transform="translate(275.703 186.984)">
        <rect id="Rectangle_2137" data-name="Rectangle 2137" width="8.54" height="36.894" fill="#90c0fc"/>
      </g>
    </g>
  </g>
</svg>
