<svg id="_01" data-name="01" xmlns="http://www.w3.org/2000/svg" width="77.709" height="74.067" viewBox="0 0 77.709 74.067">
  <path id="Path_194" data-name="Path 194" d="M64.868,55.271A5.133,5.133,0,1,0,70.006,60.4a5.139,5.139,0,0,0-5.139-5.133Zm0,7.2A2.072,2.072,0,1,1,66.945,60.4,2.075,2.075,0,0,1,64.868,62.475Z" transform="translate(-50.667 -48.703)" fill="#15d1ff"/>
  <path id="Path_195" data-name="Path 195" d="M284.813,55.271H271.24a5.133,5.133,0,1,0,0,10.265h13.573a5.133,5.133,0,1,0,0-10.265Zm0,7.2H271.24a2.072,2.072,0,1,1,0-4.143h13.573a2.072,2.072,0,1,1,0,4.143Z" transform="translate(-225.717 -48.703)" fill="#15d1ff"/>
  <path id="Path_196" data-name="Path 196" d="M152.54,55.271a5.133,5.133,0,1,0,5.139,5.133,5.139,5.139,0,0,0-5.139-5.133Zm0,7.2a2.072,2.072,0,1,1,2.078-2.072A2.075,2.075,0,0,1,152.54,62.475Z" transform="translate(-125.033 -48.703)" fill="#15d1ff"/>
  <path id="Path_197" data-name="Path 197" d="M137.279,222.207a1.53,1.53,0,0,0-1.844,1.133L132.4,236.046a1.531,1.531,0,1,0,2.977.711l3.036-12.706A1.53,1.53,0,0,0,137.279,222.207Z" transform="translate(-112.267 -190.266)" fill="#15d1ff"/>
  <path id="Path_198" data-name="Path 198" d="M198.95,242.814a1.531,1.531,0,0,0,2.161-.125l4.292-4.818a2.124,2.124,0,0,0,0-2.806l-4.3-4.823a1.531,1.531,0,0,0-2.286,2.036l3.73,4.187-3.73,4.187A1.531,1.531,0,0,0,198.95,242.814Z" transform="translate(-168.319 -196.683)" fill="#15d1ff"/>
  <path id="Path_199" data-name="Path 199" d="M64.04,230.118a1.531,1.531,0,0,0-2.161.125l-4.291,4.817a2.123,2.123,0,0,0,0,2.807l4.3,4.823a1.531,1.531,0,1,0,2.286-2.036l-3.73-4.187,3.73-4.187A1.531,1.531,0,0,0,64.04,230.118Z" transform="translate(-48.395 -196.684)" fill="#15d1ff"/>
  <path id="Path_200" data-name="Path 200" d="M74.277,61.708h-.568a16.115,16.115,0,0,0-1.154-2.784l.406-.407a3.429,3.429,0,0,0,0-4.851l-.79-.79v-32.6c0-4.565-3.222-8.279-7.182-8.279H7.182C3.222,12,0,15.71,0,20.275V63.053c0,4.565,3.222,8.279,7.182,8.279h8.98a1.53,1.53,0,1,0,0-3.061H7.182c-2.234,0-4.121-2.39-4.121-5.218V35.286H69.113V50.752a3.481,3.481,0,0,0-.531-.044h-.005a3.393,3.393,0,0,0-2.415,1l-.414.412a16.158,16.158,0,0,0-2.829-1.168v-.545a3.435,3.435,0,0,0-3.431-3.431h-2.77a3.433,3.433,0,0,0-3.427,3.431v.583a16.247,16.247,0,0,0-2.764,1.157l-.4-.4a3.4,3.4,0,0,0-2.421-1.006H47.7a3.408,3.408,0,0,0-2.425,1L43.322,53.7a3.429,3.429,0,0,0,0,4.845l.423.424a16.162,16.162,0,0,0-1.127,2.733h-.581a3.43,3.43,0,0,0-3.427,3.426v2.772a3.449,3.449,0,0,0,.02.365H29.722a1.531,1.531,0,0,0,0,3.061h12.9a16.068,16.068,0,0,0,1.145,2.755l-.414.412a3.435,3.435,0,0,0,0,4.844L45.314,81.3a3.4,3.4,0,0,0,2.421,1.006h.005a3.407,3.407,0,0,0,2.426-1l.41-.41a16.173,16.173,0,0,0,2.766,1.146v.592a3.433,3.433,0,0,0,3.427,3.431h2.774a3.433,3.433,0,0,0,3.427-3.431v-.589a16.13,16.13,0,0,0,2.778-1.15l.408.407a3.4,3.4,0,0,0,2.42,1.006h.005a3.409,3.409,0,0,0,2.427-1l1.953-1.956a3.429,3.429,0,0,0,0-4.851l-.408-.408A16.159,16.159,0,0,0,73.7,71.332h.578a3.433,3.433,0,0,0,3.431-3.426V65.134A3.432,3.432,0,0,0,74.277,61.708ZM3.061,32.225V20.275c0-2.828,1.887-5.218,4.121-5.218H64.992c2.234,0,4.121,2.39,4.121,5.218v11.95H3.061ZM74.648,67.906a.377.377,0,0,1-.37.365h-1.75a1.531,1.531,0,0,0-1.492,1.189,13.139,13.139,0,0,1-1.688,4.067,1.53,1.53,0,0,0,.214,1.9L70.8,76.662a.367.367,0,0,1,.106.261.355.355,0,0,1-.107.258l-1.955,1.959a.369.369,0,0,1-.262.107h0a.357.357,0,0,1-.26-.108L67.079,77.9a1.531,1.531,0,0,0-1.9-.211,13.114,13.114,0,0,1-4.084,1.69,1.531,1.531,0,0,0-1.191,1.493v1.762a.377.377,0,0,1-.366.369H56.769a.377.377,0,0,1-.366-.369V80.866a1.531,1.531,0,0,0-1.193-1.493,13.133,13.133,0,0,1-4.076-1.687,1.53,1.53,0,0,0-1.894.215L48,79.139a.369.369,0,0,1-.262.107h0a.355.355,0,0,1-.258-.106l-1.961-1.96a.377.377,0,0,1,0-.515l1.243-1.238a1.53,1.53,0,0,0,.214-1.9,13.045,13.045,0,0,1-1.69-4.064,1.531,1.531,0,0,0-1.492-1.189H42.035a.37.37,0,0,1-.366-.365V65.134a.371.371,0,0,1,.366-.365h1.755a1.531,1.531,0,0,0,1.493-1.191,13.13,13.13,0,0,1,1.668-4.047,1.53,1.53,0,0,0-.215-1.891l-1.252-1.256a.351.351,0,0,1-.1-.253.366.366,0,0,1,.106-.261l1.957-1.956a.369.369,0,0,1,.262-.107h0a.357.357,0,0,1,.26.108L49.2,55.146a1.53,1.53,0,0,0,1.9.208,13.2,13.2,0,0,1,4.071-1.707,1.53,1.53,0,0,0,1.182-1.49V50.408a.373.373,0,0,1,.366-.369h2.77a.375.375,0,0,1,.37.369v1.724a1.53,1.53,0,0,0,1.2,1.494,13.123,13.123,0,0,1,4.13,1.7,1.531,1.531,0,0,0,1.894-.212l1.248-1.243a.353.353,0,0,1,.254-.1h0a.368.368,0,0,1,.262.107L70.8,55.832a.367.367,0,0,1,.106.261.356.356,0,0,1-.108.258l-1.239,1.242a1.531,1.531,0,0,0-.211,1.9,13.1,13.1,0,0,1,1.695,4.089,1.531,1.531,0,0,0,1.492,1.19h1.742a.378.378,0,0,1,.37.365Z" transform="translate(0 -11.996)" fill="#15d1ff"/>
  <path id="Path_201" data-name="Path 201" d="M330.913,309.652a9.347,9.347,0,1,0,9.349,9.35A9.362,9.362,0,0,0,330.913,309.652Zm0,15.634A6.286,6.286,0,1,1,337.2,319,6.3,6.3,0,0,1,330.913,325.286Z" transform="translate(-272.754 -264.475)" fill="#15d1ff"/>
  <path id="Path_202" data-name="Path 202" d="M142.733,382.778h-.03a1.531,1.531,0,0,0,0,3.061h.03a1.531,1.531,0,0,0,0-3.061Z" transform="translate(-119.746 -326.503)" fill="#15d1ff"/>
</svg>
