<svg xmlns="http://www.w3.org/2000/svg" width="70.328" height="70.404" viewBox="0 0 70.328 70.404">
  <g id="_02" data-name="02" transform="translate(0 0)">
    <path id="Shape" d="M60.742,51.63a15.769,15.769,0,0,0-.028-5.984l5.374-12.97a.189.189,0,0,0,0-.026,22.036,22.036,0,0,1,3.772-6.55,1.75,1.75,0,0,0,.433-1.6l-2.2-9.516a1.146,1.146,0,0,0-.117-.284c-.009-.018-.013-.039-.022-.055s-.05-.056-.074-.087a1.184,1.184,0,0,0-.165-.194,1.091,1.091,0,0,0-.128-.077,1.2,1.2,0,0,0-.182-.11,1.159,1.159,0,0,0-.275-.067c-.027,0-.05-.018-.077-.02a1.173,1.173,0,0,0-.647.144c-.018.009-.039.013-.056.023h-.012l-8.285,5.171a1.751,1.751,0,0,0-.828,1.443,22.026,22.026,0,0,1-1.972,7.314V28.2l-2.686,6.492a15.741,15.741,0,0,0-4.191-1.514,63.4,63.4,0,0,0,.608-11.538,12.806,12.806,0,0,0,2.912-9.4C51.158,5.4,44.978.459,44.714.251a1.173,1.173,0,0,0-1.86,1.224c.6,2.269.081,4.664-4.383,9.589a6.867,6.867,0,0,0-1.609,7.483,9.109,9.109,0,0,0,1.671,2.7c-.284,1.813-.507,3.53-.661,5.2a58.763,58.763,0,0,0-.2,8.322A15.966,15.966,0,0,0,34.747,36.8L29.056,12.469c0-.025-.023-.042-.031-.065a1.11,1.11,0,0,0-.082-.226L23.13,1.442a2.709,2.709,0,0,0-5.09,1.192l-.441,12.2a1.212,1.212,0,0,0,.029.262v.053l5.806,24.779a13.214,13.214,0,0,0-2.713.4L14.334,24.905a2.371,2.371,0,0,0-3.063-1.254L1.51,27.692A2.354,2.354,0,0,0,.24,30.758L8.9,51.654A9.381,9.381,0,0,0,9.385,70.4h51.63a9.388,9.388,0,1,0-.272-18.774Zm-1.2-30.372,4.919-3.07-1.741,4.205a1.174,1.174,0,1,0,2.168.9l1.741-4.205,1.3,5.648a23.208,23.208,0,0,0-3.4,5.617,4.826,4.826,0,0,1-6.559-2.713A23.179,23.179,0,0,0,59.547,21.257Zm-2.7,9.212a7.147,7.147,0,0,0,2.925,2.13,7.447,7.447,0,0,0,2.871.605,6.206,6.206,0,0,0,.711-.043L59.611,42.2a15.925,15.925,0,0,0-5.039-6.23Zm-16.076-8.38,5.9.36c.036,1.1.023,2.229-.013,3.381a24.667,24.667,0,0,1-5.879-.284c-.148-.021-.292-.038-.439-.057.117-1.105.26-2.225.433-3.4Zm-.56-9.449c3.115-3.437,4.73-6.081,5.105-8.566a15.694,15.694,0,0,1,4.235,8.411,10.514,10.514,0,0,1-2.375,7.641Q43.7,19.915,40.3,19.7a4.894,4.894,0,0,1-.09-7.064Zm-.089,15.187.34.045a33.425,33.425,0,0,0,4.568.388c.486,0,1-.039,1.51-.079-.107,1.51-.282,3.087-.5,4.717-.29-.015-.574-.043-.865-.043a15.716,15.716,0,0,0-5.2.9,56.623,56.623,0,0,1,.148-5.923ZM31.047,41.549l-3.357-14.3a1.173,1.173,0,0,0-2.285.535l3.017,12.871a13.29,13.29,0,0,0-2.558-.637L20.714,18.04a5.561,5.561,0,0,0,2.3.5c.074,0,.153-.011.228-.014l.83,3.542a1.173,1.173,0,1,0,2.285-.535l-.831-3.545a5.557,5.557,0,0,0,2.05-1.561l5.236,22.387A15.743,15.743,0,0,0,31.047,41.549ZM23.878,16.086a3.9,3.9,0,0,1-3.918-1.569l.149-4.133a6.905,6.905,0,0,0,1.238.117,5.229,5.229,0,0,0,1.192-.133,5.978,5.978,0,0,0,2.175-1.082l1.976,3.647a3.892,3.892,0,0,1-2.813,3.154ZM20.664,2.379a.366.366,0,0,1,.4.181l2.516,4.653A4,4,0,0,1,22,8.092a3.99,3.99,0,0,1-1.808-.086l.191-5.287A.364.364,0,0,1,20.664,2.379ZM12.172,25.815l.9,2.166-4.342,1.8a1.173,1.173,0,0,0,.452,2.255,1.191,1.191,0,0,0,.449-.089l4.342-1.8.9,2.168-2.172.9a1.173,1.173,0,0,0,.451,2.258,1.194,1.194,0,0,0,.448-.089l2.172-.9.9,2.168-4.345,1.8a1.173,1.173,0,0,0,.451,2.258,1.189,1.189,0,0,0,.448-.089l4.342-1.8.949,2.292a13.622,13.622,0,0,0-7.6,9.248l-8.5-20.506ZM61.015,68.057H9.385a7.04,7.04,0,0,1,0-14.081,6.912,6.912,0,0,1,2.008.291,1.173,1.173,0,0,0,1.513-1.1,11.147,11.147,0,0,1,17.836-8.694,1.173,1.173,0,0,0,1.8-.528,13.5,13.5,0,0,1,25.536,8.711,1.173,1.173,0,0,0,1.373,1.493,7.325,7.325,0,0,1,1.566-.171,7.04,7.04,0,0,1,0,14.081Z" transform="translate(-0.012 0)" fill="#15d1ff"/>
    <path id="Shape-2" data-name="Shape" d="M38.857,16.922a1.173,1.173,0,0,0,.939-.463A8.8,8.8,0,0,0,41.357,9.55a1.173,1.173,0,1,0-2.267.6,6.518,6.518,0,0,1-1.164,4.888,1.173,1.173,0,0,0,.939,1.877Z" transform="translate(6.521 1.501)" fill="#15d1ff"/>
    <path id="Shape-3" data-name="Shape" d="M39.622,46.34a5.768,5.768,0,0,0-2.517.587,7.04,7.04,0,0,0-12.162,6.911,1.173,1.173,0,0,0,1.08.713,1.161,1.161,0,0,0,.46-.094,1.173,1.173,0,0,0,.62-1.539,4.779,4.779,0,0,1-.387-1.884,4.694,4.694,0,0,1,4.694-4.694,4.647,4.647,0,0,1,4.242,2.7,1.276,1.276,0,0,0,.082.11,1.19,1.19,0,0,0,.062.117c.021.026.052.038.075.062a1.119,1.119,0,0,0,.182.153,1.13,1.13,0,0,0,.188.117,1.169,1.169,0,0,0,.211.066,1.08,1.08,0,0,0,.221.034,1.442,1.442,0,0,0,.448-.075.9.9,0,0,0,.093-.022,1.061,1.061,0,0,0,.109-.081,1.221,1.221,0,0,0,.123-.063,3.46,3.46,0,0,1,2.178-.77,3.52,3.52,0,0,1,3.192,2.048,1.174,1.174,0,1,0,2.136-.974A5.867,5.867,0,0,0,39.622,46.34Z" transform="translate(4.213 7.637)" fill="#15d1ff"/>
    <path id="Shape-4" data-name="Shape" d="M18.323,39.061C18.146,39.118,14,40.552,14,44.868a1.173,1.173,0,1,0,2.347,0,4.034,4.034,0,0,1,2.725-3.582,1.176,1.176,0,1,0-.749-2.229Z" transform="translate(2.413 6.762)" fill="#15d1ff"/>
    <path id="Shape-5" data-name="Shape" d="M31.888,39.005a1.145,1.145,0,0,0,.285.035,1.173,1.173,0,0,0,1.137-.888,5,5,0,0,1,4.736-3.805A1.173,1.173,0,0,0,38.04,32a7.309,7.309,0,0,0-7.005,5.582A1.173,1.173,0,0,0,31.888,39.005Z" transform="translate(5.361 5.549)" fill="#15d1ff"/>
  </g>
</svg>
