<svg id="_03" data-name="03" xmlns="http://www.w3.org/2000/svg" width="73.768" height="73.768" viewBox="0 0 73.768 73.768">
  <g id="Group_66" data-name="Group 66" transform="translate(0)">
    <g id="Group_65" data-name="Group 65">
      <path id="Path_203" data-name="Path 203" d="M68.355,6.641H33.275V8.806h35.08A3.252,3.252,0,0,1,71.6,12.054v32.12H33.059V12.332L27.645,3.309l-5.414,9.022V44.174H18.622V0H6.352V44.174H2.165V12.054a3.269,3.269,0,0,1,2.08-3.032L3.466,7A5.448,5.448,0,0,0,0,12.054V52.475a5.42,5.42,0,0,0,5.413,5.413H25.7v7.94H22.448a3.974,3.974,0,0,0-3.97,3.97v3.97H55.29V69.8a3.974,3.974,0,0,0-3.97-3.97H48.072v-7.94H68.355a5.42,5.42,0,0,0,5.413-5.413V12.054A5.42,5.42,0,0,0,68.355,6.641Zm-40.71.877,2.845,4.742-2.845,1.707L24.8,12.26ZM24.4,14.544l3.248,1.949,3.248-1.949V38.4H24.4V14.544Zm0,26.022h6.5v3.609H24.4ZM8.517,41.576h5.269V39.41H8.517V37.245h2.959V35.08H8.517V32.914h5.269V30.749H8.517V28.584h2.959V26.418H8.517V24.253h5.269V22.088H8.517V19.922h2.959V17.756H8.517V15.591h5.269V13.426H8.517V11.26h2.959V9.095H8.517V6.929h5.269V4.764H8.517v-2.6h7.94V44.174H8.517Zm42.8,26.418a1.806,1.806,0,0,1,1.8,1.8v1.8H20.644V69.8a1.806,1.806,0,0,1,1.8-1.8ZM27.862,65.828v-7.94H45.907v7.94ZM71.6,52.475a3.252,3.252,0,0,1-3.248,3.248H5.413a3.252,3.252,0,0,1-3.248-3.248V46.34H71.6v6.135Z" fill="#15d1ff"/>
    </g>
  </g>
  <g id="Group_68" data-name="Group 68" transform="translate(44.174 10.971)">
    <g id="Group_67" data-name="Group 67">
      <path id="Path_204" data-name="Path 204" d="M306.6,76.149V88.42h25.263V76.149Zm23.1,10.105H308.764v-7.94H329.7Z" transform="translate(-306.599 -76.149)" fill="#15d1ff"/>
    </g>
  </g>
  <g id="Group_70" data-name="Group 70" transform="translate(44.174 25.407)">
    <g id="Group_69" data-name="Group 69">
      <path id="Path_205" data-name="Path 205" d="M306.6,176.344v7.94h11.549v-7.94Zm9.383,5.775h-7.218V178.51h7.218Z" transform="translate(-306.599 -176.344)" fill="#15d1ff"/>
    </g>
  </g>
  <g id="Group_72" data-name="Group 72" transform="translate(57.889 25.407)">
    <g id="Group_71" data-name="Group 71">
      <path id="Path_206" data-name="Path 206" d="M401.785,176.344v7.94h11.549v-7.94Zm9.384,5.775h-7.218V178.51h7.218Z" transform="translate(-401.785 -176.344)" fill="#15d1ff"/>
    </g>
  </g>
  <g id="Group_74" data-name="Group 74" transform="translate(35.296 10.971)">
    <g id="Group_73" data-name="Group 73">
      <path id="Path_207" data-name="Path 207" d="M251.474,78.314V76.149h-6.5v2.165h2.165v26.707h-2.165v2.165h6.5v-2.165h-2.166V78.314Z" transform="translate(-244.978 -76.149)" fill="#15d1ff"/>
    </g>
  </g>
  <g id="Group_76" data-name="Group 76" transform="translate(35.801 49.949)">
    <g id="Group_75" data-name="Group 75">
      <rect id="Rectangle_29" data-name="Rectangle 29" width="2.165" height="2.165" fill="#15d1ff"/>
    </g>
  </g>
  <g id="Group_78" data-name="Group 78" transform="translate(40.132 49.949)">
    <g id="Group_77" data-name="Group 77">
      <rect id="Rectangle_30" data-name="Rectangle 30" width="2.165" height="2.165" fill="#15d1ff"/>
    </g>
  </g>
  <g id="Group_80" data-name="Group 80" transform="translate(31.471 49.949)">
    <g id="Group_79" data-name="Group 79">
      <rect id="Rectangle_31" data-name="Rectangle 31" width="2.165" height="2.165" fill="#15d1ff"/>
    </g>
  </g>
  <g id="Group_82" data-name="Group 82" transform="translate(26.562 28.223)">
    <g id="Group_81" data-name="Group 81">
      <rect id="Rectangle_32" data-name="Rectangle 32" width="2.165" height="2.165" fill="#15d1ff"/>
    </g>
  </g>
  <g id="Group_84" data-name="Group 84" transform="translate(26.562 32.553)">
    <g id="Group_83" data-name="Group 83">
      <rect id="Rectangle_33" data-name="Rectangle 33" width="2.165" height="3.609" fill="#15d1ff"/>
    </g>
  </g>
  <g id="Group_86" data-name="Group 86" transform="translate(26.562 18.839)">
    <g id="Group_85" data-name="Group 85">
      <rect id="Rectangle_34" data-name="Rectangle 34" width="2.165" height="7.218" fill="#15d1ff"/>
    </g>
  </g>
  <g id="Group_88" data-name="Group 88" transform="translate(52.475 36.234)">
    <g id="Group_87" data-name="Group 87">
      <rect id="Rectangle_35" data-name="Rectangle 35" width="2.165" height="2.165" fill="#15d1ff"/>
    </g>
  </g>
  <g id="Group_90" data-name="Group 90" transform="translate(45.257 36.234)">
    <g id="Group_89" data-name="Group 89">
      <rect id="Rectangle_36" data-name="Rectangle 36" width="5.053" height="2.165" fill="#15d1ff"/>
    </g>
  </g>
  <g id="Group_92" data-name="Group 92" transform="translate(58.971 36.234)">
    <g id="Group_91" data-name="Group 91">
      <rect id="Rectangle_37" data-name="Rectangle 37" width="5.053" height="2.165" fill="#15d1ff"/>
    </g>
  </g>
  <g id="Group_94" data-name="Group 94" transform="translate(66.189 36.234)">
    <g id="Group_93" data-name="Group 93">
      <rect id="Rectangle_38" data-name="Rectangle 38" width="2.165" height="2.165" fill="#15d1ff"/>
    </g>
  </g>
</svg>
